<svg viewBox="0 0 100 100" xmlns="http://www.w3.org/2000/svg"><path d="m94.74 50.49-23.81-39.73-20.09-2.55h-.02l-.22 40.32z" fill="#fbfbfb"/><path d="m50.6 48.53-.27 43.26 22.73-1.65 21.78-39.41-.1-.24zm0 0 .22-40.32-20.99 2.55-24.26 39.69z" fill="#f5f5f5"/><path d="m5.57 50.45-.12.28 22.25 39.41 22.61 1.65h.02l.27-43.26-45.03 1.92z" fill="#eaeaea"/><path d="m35.07 10.11-24.35 40.13 22.14 40.28-11.24-.79-21.62-38.64 23.18-39.49zm42.79 1.78-12.1-1.79 23.66 40.2-21.25 40.27 11.26-.84 20.57-39.4z" fill="#bbb"/></svg>