<svg xmlns="http://www.w3.org/2000/svg" width="300" height="300" viewBox="0 0 300 300"><rect x="119.83" y="96.35" width="17.7" height="17.7" fill="#f7b419"/><rect x="143.05" y="112.94" width="17.7" height="17.7" fill="#f7b419"/><rect x="127.37" y="172.23" width="49.35" height="49.35" fill="#f7b419"/><rect x="162.96" y="96.35" width="17.7" height="17.7" fill="#f7b419"/><path d="M175.44,211.66a4.47,4.47,0,0,1,3.06,1.13,4.83,4.83,0,0,1,1,6.08l-6.62,11.06a7.9,7.9,0,0,1-2.92,2.82,7.71,7.71,0,0,1-3.9,1h-38a4.71,4.71,0,0,1-4.74-4.68V200.59a4.71,4.71,0,0,1,4.68-4.74h15.87l6.32,6.32H166a4.71,4.71,0,0,1,4.74,4.68v4.81ZM128,199a1.54,1.54,0,0,0-1.58,1.5v26.56l7-11.56a7.32,7.32,0,0,1,2.81-2.82,7.75,7.75,0,0,1,3.91-1h27.36v-4.75a1.5,1.5,0,0,0-.44-1.13,1.55,1.55,0,0,0-1.14-.45H148.86L142.54,199Zm48.81,18.18a1.57,1.57,0,0,0,0-1.58,1.43,1.43,0,0,0-1.33-.79H139.87a4.9,4.9,0,0,0-2.37.59,4.12,4.12,0,0,0-1.68,1.68l-8.1,13.54h38.35a4.77,4.77,0,0,0,2.37-.6,3.94,3.94,0,0,0,1.63-1.68Z" fill="#3d56a3"/><path d="M116.83,182.57a2.79,2.79,0,0,1,1.87.69,2.92,2.92,0,0,1,1,1.74,2.76,2.76,0,0,1-.36,2l-4.82,7.71a2.88,2.88,0,0,1-1.08,1,2.94,2.94,0,0,1-1.39.36H87.91a2.87,2.87,0,0,1-2.84-2.9h0V175.82A2.87,2.87,0,0,1,88,173H97.6l3.86,3.85h9.61a2.91,2.91,0,0,1,2.89,2.89v2.9Zm-28.55-6.75a.42.42,0,0,0-.37.36v14l3.8-6.27a2.53,2.53,0,0,1,1-1,3.05,3.05,0,0,1,1.45-.36h16.91V180a.42.42,0,0,0-.36-.37H100.2l-3.85-3.85ZM112,193.17l4.82-7.71H94l-4.64,7.71Z" fill="#3d56a3"/><path d="M218,171.46a2.73,2.73,0,0,1,1.87.69,3,3,0,0,1,1,1.75,2.75,2.75,0,0,1-.37,2l-4.82,7.71a3,3,0,0,1-1.08,1,2.8,2.8,0,0,1-1.38.37H189.07a2.89,2.89,0,0,1-2.89-2.89h0V164.71a2.89,2.89,0,0,1,2.89-2.89h9.64l3.85,3.86h9.64a2.86,2.86,0,0,1,2.89,2.85v2.93Zm-28.55-6.75a.37.37,0,0,0-.24.12.39.39,0,0,0-.12.25v14l3.79-6.26a2.53,2.53,0,0,1,1-1,3,3,0,0,1,1.44-.36h16.87v-2.53a.42.42,0,0,0-.36-.36H201.38l-3.86-3.86Zm23.74,17.35,4.81-7.71H195.17l-4.64,7.71Z" fill="#3d56a3"/><path d="M173.56,89.75a1.76,1.76,0,0,1,1.76,1.76v10.58a1.76,1.76,0,0,1-1.76,1.76H163a1.74,1.74,0,0,1-1.76-1.72V91.51a1.74,1.74,0,0,1,1.72-1.76h3v-3.5a1.13,1.13,0,0,0-1.08-1.18H153v4.7h4.08a1.76,1.76,0,0,1,1.76,1.76h0v10.56a1.76,1.76,0,0,1-1.76,1.76H146.53a1.74,1.74,0,0,1-1.76-1.72V91.51a1.74,1.74,0,0,1,1.72-1.76h4.15v-4.7H138.89a1.13,1.13,0,0,0-1.17,1.09v3.61h2.93a1.76,1.76,0,0,1,1.77,1.75h0v10.58a1.69,1.69,0,0,1-.52,1.25,1.72,1.72,0,0,1-1.25.51H130.07a1.74,1.74,0,0,1-1.76-1.72V91.51A1.74,1.74,0,0,1,130,89.75h5.33v-3.5a3.53,3.53,0,0,1,3.51-3.53h11.76V80.35h-4.11a1.74,1.74,0,0,1-1.76-1.72V68a1.74,1.74,0,0,1,1.77-1.76h10.54A1.76,1.76,0,0,1,158.83,68V78.59a1.76,1.76,0,0,1-1.76,1.76H153V82.7H164.7a3.53,3.53,0,0,1,3.57,3.47v3.58ZM140.07,92.1h-9.4v9.4h9.4Zm7-14.1h9.4V68.6h-9.4Zm9.4,14.1h-9.4v9.4h9.4Zm16.45,9.4V92.1h-9.4v9.4Z" fill="#3d56a3"/><line x1="152.46" y1="202.53" x2="152.46" y2="115.15" fill="none" stroke="#3d56a3" stroke-miterlimit="10" stroke-width="2.21"/><path d="M165.18,200.32s-.56-62.49,62.49-62.49" fill="none" stroke="#3d56a3" stroke-miterlimit="10" stroke-width="2.21"/><path d="M139.07,195.38s.55-62.49-62.5-62.49" fill="none" stroke="#3d56a3" stroke-miterlimit="10" stroke-width="2.21"/><circle cx="72.14" cy="131.23" r="15.48" fill="#f7b419"/><path d="M43.65,140.32a3.93,3.93,0,0,0,.22,1.32H36.45a3.4,3.4,0,0,1-3.38-3.39V135a5.67,5.67,0,0,1,1.17-3.52,5.59,5.59,0,0,1,2.65-2,7,7,0,0,1,5.58-11.29,6.79,6.79,0,0,1,2.94.66,7.92,7.92,0,0,1,2.42,1.76,9.56,9.56,0,0,0,.44,7.93,8.46,8.46,0,0,0-3.69,3.38,6.61,6.61,0,0,1-2.11.38,6.74,6.74,0,0,1-3.52-1l-1,.3a3.16,3.16,0,0,0-1.87,1.24,3.47,3.47,0,0,0-.7,2.13v3.33a1,1,0,0,0,1,1h7.2Zm-1.18-19.83a4.7,4.7,0,0,0,0,9.4h0a4.7,4.7,0,1,0,0-9.4ZM63.07,129a8.09,8.09,0,0,1,3,1.68,6.5,6.5,0,0,1,2.28,5.14v4.49A3.64,3.64,0,0,1,64.74,144H48.49a3.64,3.64,0,0,1-3.67-3.63v-4.53a6.52,6.52,0,0,1,2.25-5.14,8.09,8.09,0,0,1,3-1.68,8.19,8.19,0,1,1,13,0ZM66,140.32v-4.49a4.83,4.83,0,0,0-3.38-4.58l-1.52-.33a8.25,8.25,0,0,1-9,0l-1.52.33a4.83,4.83,0,0,0-3.38,4.55v4.49a1.4,1.4,0,0,0,1.32,1.32H64.65A1.3,1.3,0,0,0,66,140.32Zm-9.4-22.18a5.87,5.87,0,1,0,4.11,1.7A5.87,5.87,0,0,0,56.57,118.14Zm19.68,11.31a5.55,5.55,0,0,1,2.65,2,5.68,5.68,0,0,1,1.17,3.5v3.3a3.38,3.38,0,0,1-3.38,3.38H69.28a4.25,4.25,0,0,0,.22-1.32v-1.06h7.19a1,1,0,0,0,1-1V135a3.47,3.47,0,0,0-.7-2.13,3.16,3.16,0,0,0-1.87-1.24l-1-.3a6.75,6.75,0,0,1-3.53,1,6.4,6.4,0,0,1-2.13-.37,8.56,8.56,0,0,0-3.67-3.38,9.56,9.56,0,0,0,.44-7.93,8.09,8.09,0,0,1,2.42-1.76,7,7,0,0,1,8.55,10.61Zm-5.58.44a4.64,4.64,0,1,0-3.34-1.36A4.64,4.64,0,0,0,70.67,129.89Z" fill="#3d56a3"/><rect x="237.07" y="114.05" width="29.86" height="27.62" fill="#f7b419"/><path d="M259.72,117.25a3.5,3.5,0,0,1,3.53,3.47v25.92a3.53,3.53,0,0,1-3.51,3.53H229.17a3.38,3.38,0,0,1-2.49-1,3.42,3.42,0,0,1-1-2.5V120.79a3.5,3.5,0,0,1,3.46-3.54h30.58Zm0,2.35H229.17a1.13,1.13,0,0,0-1.17,1.09v25.95a1.13,1.13,0,0,0,1.08,1.18h30.64a1.13,1.13,0,0,0,1.18-1.08V120.79a1.13,1.13,0,0,0-1.09-1.17h-.09Zm-24.65,4.72a2.37,2.37,0,1,1-2.35,2.39,2.4,2.4,0,0,1,.7-1.7A2.24,2.24,0,0,1,235.07,124.32Zm0,7.05a2.37,2.37,0,1,1-2.35,2.39,2.4,2.4,0,0,1,.7-1.7A2.24,2.24,0,0,1,235.07,131.37Zm0,7a2.37,2.37,0,1,1-2.35,2.39,2.4,2.4,0,0,1,.7-1.7,2.26,2.26,0,0,1,1.65-.64Zm21.13-10.82a.54.54,0,0,1-.44.44H240.19a.54.54,0,0,1-.44-.44v-1.76a.44.44,0,0,1,.15-.3.41.41,0,0,1,.29-.15h15.57a.41.41,0,0,1,.29.15.44.44,0,0,1,.15.3Zm0,7a.54.54,0,0,1-.44.44H240.19a.54.54,0,0,1-.44-.44v-1.71a.44.44,0,0,1,.15-.3.41.41,0,0,1,.29-.15h15.57a.41.41,0,0,1,.29.15.44.44,0,0,1,.15.3Zm0,7a.54.54,0,0,1-.44.44H240.19a.54.54,0,0,1-.44-.44v-1.71a.44.44,0,0,1,.15-.3.37.37,0,0,1,.29-.14h15.57a.37.37,0,0,1,.29.14.44.44,0,0,1,.15.3Z" fill="#3d56a3"/><path d="M118.44,127.11a.46.46,0,0,1,.23.28.69.69,0,0,1,0,.35l-.15.23a.44.44,0,0,1-.28.22.55.55,0,0,1-.36,0l-7-4v8.06a.44.44,0,0,1-.43.45h-.38a.48.48,0,0,1-.32-.13.46.46,0,0,1-.13-.32v-8.14l-7,4a.56.56,0,0,1-.36,0,.44.44,0,0,1-.28-.22l-.15-.23a.69.69,0,0,1,0-.35.46.46,0,0,1,.23-.28l7-4-7-4a.46.46,0,0,1-.23-.28.69.69,0,0,1,0-.35l.15-.23a.44.44,0,0,1,.28-.22.56.56,0,0,1,.36,0l7,4v-8.07a.46.46,0,0,1,.13-.32.48.48,0,0,1,.32-.13h.3a.44.44,0,0,1,.44.44h0V122l7-4a.56.56,0,0,1,.36,0,.44.44,0,0,1,.28.22l.15.23a.69.69,0,0,1,0,.35.46.46,0,0,1-.23.28l-7,4Z" fill="#3d56a3"/><path d="M185.13,141a.37.37,0,0,1,.17.22.45.45,0,0,1,0,.28l-.12.17a.3.3,0,0,1-.21.17.45.45,0,0,1-.28,0l-5.4-3.12V145a.32.32,0,0,1-.11.24.31.31,0,0,1-.24.1h-.23a.34.34,0,0,1-.35-.34v-6.28L173,141.8a.42.42,0,0,1-.27,0,.32.32,0,0,1-.22-.17l-.11-.17a.45.45,0,0,1,0-.28.32.32,0,0,1,.17-.22l5.41-3.12-5.41-3.12a.32.32,0,0,1-.17-.22.42.42,0,0,1,0-.27l.11-.18a.37.37,0,0,1,.22-.17.42.42,0,0,1,.27,0l5.41,3.12v-6.18a.34.34,0,0,1,.33-.35h.25a.31.31,0,0,1,.24.1.33.33,0,0,1,.11.25v6.24l5.4-3.12a.45.45,0,0,1,.28,0,.36.36,0,0,1,.21.17l.12.18a.42.42,0,0,1,0,.27.37.37,0,0,1-.17.22l-5.41,3.12Z" fill="#3d56a3"/><path d="M218.36,93a.5.5,0,0,1,.26.31.69.69,0,0,1-.05.4l-.16.25a.5.5,0,0,1-.34.26.65.65,0,0,1-.39,0l-7.81-4.51v9a.52.52,0,0,1-.5.5h-.3a.48.48,0,0,1-.36-.15.47.47,0,0,1-.15-.35v-9l-7.81,4.51a.68.68,0,0,1-.4,0A.52.52,0,0,1,200,94l-.17-.25a.68.68,0,0,1,0-.4.52.52,0,0,1,.25-.31l7.81-4.51L200.07,84a.46.46,0,0,1-.25-.31.68.68,0,0,1,0-.4l.17-.25a.52.52,0,0,1,.31-.25.68.68,0,0,1,.4,0l7.8,4.51v-9a.51.51,0,0,1,.15-.35.48.48,0,0,1,.36-.15h.33a.51.51,0,0,1,.5.5v9l7.81-4.51a.65.65,0,0,1,.39,0,.54.54,0,0,1,.32.25l.16.25a.69.69,0,0,1,0,.4.48.48,0,0,1-.26.31l-7.8,4.51Z" fill="#3d56a3"/></svg>
