<svg xmlns="http://www.w3.org/2000/svg" width="300" height="300" viewBox="0 0 300 300"><polygon points="142.72 186.72 81.72 186.72 91.72 154.72 131.72 154.72 142.72 186.72" fill="#f7b419"/><path d="M60.94,180.93a3.46,3.46,0,0,0,.2,1.19H54.43a2.9,2.9,0,0,1-2.15-.89,3,3,0,0,1-.9-2.16v-3a5.28,5.28,0,0,1,3.45-5,6.34,6.34,0,0,1,5.05-10.22,6.18,6.18,0,0,1,2.66.59,7.31,7.31,0,0,1,2.19,1.6,8.53,8.53,0,0,0,.4,7.17,7.21,7.21,0,0,0-1.75,1.19,6.34,6.34,0,0,0-1.52,1.86,5.8,5.8,0,0,1-1.93.33,6.13,6.13,0,0,1-3.19-.86l-.86.27a2.84,2.84,0,0,0-1.69,1.13,3.1,3.1,0,0,0-.64,1.92v3a.86.86,0,0,0,.27.66.9.9,0,0,0,.66.27h6.46ZM59.88,163a4.25,4.25,0,1,0,4.25,4.25A4.25,4.25,0,0,0,59.88,163Zm18.66,7.7a7.46,7.46,0,0,1,2.66,1.53,5.92,5.92,0,0,1,2.06,4.65v4.05A3.3,3.3,0,0,1,80,184.25H65.38A3.29,3.29,0,0,1,62.05,181v-4.1a5.86,5.86,0,0,1,2.06-4.65,7.29,7.29,0,0,1,2.66-1.53,7.48,7.48,0,1,1,11.82,0Zm2.59,10.23v-4.05a4.37,4.37,0,0,0-3-4.12l-1.4-.33a7.49,7.49,0,0,1-8.1,0l-1.4.33a4.34,4.34,0,0,0-3.05,4.12v4.05a1.09,1.09,0,0,0,.37.83,1.12,1.12,0,0,0,.83.36h14.6A1.27,1.27,0,0,0,81.13,180.93Zm-8.5-20.05a5.31,5.31,0,1,0,3.74,1.55,5.3,5.3,0,0,0-3.74-1.55Zm17.8,10.22a5.32,5.32,0,0,1,3.45,5v3a3,3,0,0,1-.9,2.16,2.93,2.93,0,0,1-2.15.89H84.12a4,4,0,0,0,.2-1.19v-1h6.51a.93.93,0,0,0,.66-.27.9.9,0,0,0,.27-.66v-3a3.17,3.17,0,0,0-.64-1.92A2.9,2.9,0,0,0,89.43,173l-.86-.27a6.19,6.19,0,0,1-3.19.86,5.76,5.76,0,0,1-1.93-.33,6.67,6.67,0,0,0-1.52-1.86,7.12,7.12,0,0,0-1.8-1.19,8.61,8.61,0,0,0,.4-7.17,7.12,7.12,0,0,1,2.19-1.56,6.34,6.34,0,0,1,7.71,9.63Zm-5.05.4a4.2,4.2,0,1,0-4.23-4.17,4.2,4.2,0,0,0,4.23,4.17Z" fill="#3d56a3"/><path d="M121.94,157.93a3.46,3.46,0,0,0,.2,1.19h-6.71a2.9,2.9,0,0,1-2.15-.89,3,3,0,0,1-.9-2.16v-3a5.29,5.29,0,0,1,3.45-5,6.34,6.34,0,0,1,5-10.22,6.18,6.18,0,0,1,2.66.59,7.31,7.31,0,0,1,2.19,1.6,8.53,8.53,0,0,0,.4,7.17,6.86,6.86,0,0,0-1.7,1.22,6.34,6.34,0,0,0-1.52,1.86,5.8,5.8,0,0,1-1.93.33,6.13,6.13,0,0,1-3.19-.86l-.86.27a2.84,2.84,0,0,0-1.69,1.13,3.1,3.1,0,0,0-.64,1.92v3a.86.86,0,0,0,.27.66.9.9,0,0,0,.66.27H122ZM120.88,140a4.2,4.2,0,1,0,3,1.23A4.13,4.13,0,0,0,120.88,140Zm18.66,7.7a7.46,7.46,0,0,1,2.66,1.53,5.92,5.92,0,0,1,2.06,4.65v4A3.3,3.3,0,0,1,141,161.2h-14.6a3.29,3.29,0,0,1-3.33-3.27v-4.05a5.86,5.86,0,0,1,2.06-4.65,7.29,7.29,0,0,1,2.66-1.53,7.44,7.44,0,1,1,11.82,0Zm2.59,10.23v-4a4.36,4.36,0,0,0-3-4.12l-1.4-.33a7.47,7.47,0,0,1-8.1,0l-1.4.33a4.34,4.34,0,0,0-3,4.12v4a1.09,1.09,0,0,0,.37.83,1.12,1.12,0,0,0,.83.36H141a1.27,1.27,0,0,0,1.2-1.19Zm-8.5-20a5.33,5.33,0,1,0,3.75,1.51,5.06,5.06,0,0,0-3.75-1.56Zm17.8,10.22a5.32,5.32,0,0,1,3.45,5v3a3,3,0,0,1-.9,2.16,2.93,2.93,0,0,1-2.15.89h-6.71a4,4,0,0,0,.2-1.19v-1h6.51a.93.93,0,0,0,.66-.27.9.9,0,0,0,.27-.66v-3a3.17,3.17,0,0,0-.64-1.92,2.9,2.9,0,0,0-1.69-1.13l-.86-.27a6.19,6.19,0,0,1-3.19.86,5.71,5.71,0,0,1-1.93-.33,6.67,6.67,0,0,0-1.52-1.86,7.12,7.12,0,0,0-1.8-1.19,8.61,8.61,0,0,0,.4-7.17,7.12,7.12,0,0,1,2.19-1.56,6.34,6.34,0,0,1,7.71,9.63Zm-5.05.35a4.2,4.2,0,1,0-4.23-4.17,4.2,4.2,0,0,0,4.23,4.17Z" fill="#3d56a3"/><path d="M83.07,122.78a12.29,12.29,0,0,1,6.31,1.72A12.87,12.87,0,0,1,94,129.12a12.59,12.59,0,0,1,0,12.67,12.84,12.84,0,0,1-4.62,4.61,12.57,12.57,0,0,1-12.66,0,12.63,12.63,0,0,1,0-21.9A12.24,12.24,0,0,1,83.07,122.78Zm-11,12.66a10.11,10.11,0,0,0,.51,3.27h4.6a24.63,24.63,0,0,1-.24-3.21,25.84,25.84,0,0,1,.21-3.29h-4.6a10.39,10.39,0,0,0-.51,3.23ZM79.68,125a10.29,10.29,0,0,0-3.81,2.12,10.86,10.86,0,0,0-2.66,3.4h4.17A14.62,14.62,0,0,1,79.65,125Zm-6.47,15.37a10.92,10.92,0,0,0,2.63,3.44,10.29,10.29,0,0,0,3.81,2.12,14.11,14.11,0,0,1-2.27-5.56Zm14.35-4.91a29.56,29.56,0,0,0-.2-3.26H78.78a26.42,26.42,0,0,0,0,6.53h8.6A29.86,29.86,0,0,0,87.56,135.44Zm-4.49-11c-.72,0-1.45.54-2.2,1.63a12.29,12.29,0,0,0-1.78,4.43h8A12.53,12.53,0,0,0,85.3,126c-.79-1.05-1.52-1.59-2.23-1.59Zm0,22c.71,0,1.44-.54,2.19-1.63a12.53,12.53,0,0,0,1.79-4.49h-8a12.22,12.22,0,0,0,1.78,4.49c.79,1.12,1.55,1.69,2.24,1.69Zm9.85-15.94a10.92,10.92,0,0,0-2.63-3.44,10.33,10.33,0,0,0-3.8-2.12,14.38,14.38,0,0,1,2.25,5.56Zm-6.38,15.41a10.35,10.35,0,0,0,3.75-2.12,10.92,10.92,0,0,0,2.63-3.44H88.74A15.32,15.32,0,0,1,86.54,145.91Zm2.45-7.2h4.6a10.86,10.86,0,0,0,0-6.53H89a27,27,0,0,1,.2,3.24A27.8,27.8,0,0,1,89,138.71Z" fill="#3d56a3"/><path d="M170.48,122.5a.47.47,0,0,1,.2.26.58.58,0,0,1,0,.32l-.14.2a.4.4,0,0,1-.25.21.58.58,0,0,1-.32,0l-6.33-3.65v7.31a.4.4,0,0,1-.12.28.42.42,0,0,1-.29.12H163a.41.41,0,0,1-.4-.4v-7.33l-6.36,3.68a.58.58,0,0,1-.32,0,.4.4,0,0,1-.26-.21l-.13-.2a.44.44,0,0,1,0-.32.45.45,0,0,1,.21-.26l6.33-3.65-6.33-3.66a.37.37,0,0,1-.21-.25.44.44,0,0,1,0-.32l.13-.2a.4.4,0,0,1,.26-.21.58.58,0,0,1,.32,0l6.33,3.65v-7.26a.36.36,0,0,1,.12-.29.33.33,0,0,1,.28-.11h.27a.37.37,0,0,1,.29.11.45.45,0,0,1,.12.29v7.31l6.33-3.65a.58.58,0,0,1,.32,0,.37.37,0,0,1,.25.21l.14.2a.58.58,0,0,1,0,.32.39.39,0,0,1-.2.25l-6.33,3.66Z" fill="#3d56a3"/><path d="M159.19,174.18a.82.82,0,0,1-.42-.51.58.58,0,0,1,.11-.58l7.57-13.59-3.9,1.1a.8.8,0,0,1-.61-.07.74.74,0,0,1-.37-.48l-.19-.55a.71.71,0,0,1,.07-.6.77.77,0,0,1,.48-.38l6.4-1.79a1,1,0,0,1,.81.08,1,1,0,0,1,.5.65l1.79,6.39a.82.82,0,0,1-.54,1h0l-.51.14a.79.79,0,0,1-1-.5.07.07,0,0,1,0-.05l-1.1-3.9-7.59,13.56a.63.63,0,0,1-.44.4.8.8,0,0,1-.64-.09Zm17.61-19.79a.79.79,0,0,0,.49-.37.86.86,0,0,0,.07-.61l-.15-.51a.79.79,0,0,0-1-.57l0,0-3.83,1.09,7.56-13.57a.66.66,0,0,0,.12-.59.84.84,0,0,0-.42-.5l-.41-.23a.83.83,0,0,0-.65-.09.61.61,0,0,0-.44.4l-7.64,13.53-1.12-3.89a.8.8,0,0,0-1-.56h0l-.51.14a.68.68,0,0,0-.49.41.75.75,0,0,0-.08.6l1.8,6.4a1.05,1.05,0,0,0,.5.65,1,1,0,0,0,.81.08Z" fill="#3d56a3"/><rect x="204.73" y="112.72" width="28" height="28" fill="#f7b419"/><path d="M245.44,126.5a3.18,3.18,0,0,1,3.19,3.17v19.14a3.19,3.19,0,0,1-3.17,3.19H232.69l1.6,6.38h4.78a1,1,0,0,1,.76.29,1,1,0,0,1,.3.77,1,1,0,0,1-.94,1.06H219.94a1,1,0,0,1-1.06-.94.24.24,0,0,1,0-.12,1,1,0,0,1,1.06-1.06h4.78l1.6-6.38H213.57a3.17,3.17,0,0,1-3.19-3.17V129.69a3.18,3.18,0,0,1,3.17-3.19h31.89Zm1.06,22.31V129.69a1,1,0,0,0-.93-1.07h-32a1,1,0,0,0-1.07.92.38.38,0,0,0,0,.15v19.12a1,1,0,0,0,.92,1.07h32a1,1,0,0,0,1.06-.94Zm-19.58,9.57h5.17L231,154.12H228Z" fill="#3d56a3"/><path d="M111.54,195.13a.24.24,0,0,1-.23.14.3.3,0,0,1-.23-.07l-9.57-8.43a.34.34,0,0,1-.05-.49l.05-.05,9.57-8.43a.43.43,0,0,1,.46,0l1.2,1.4a.31.31,0,0,1,.1.26.75.75,0,0,1-.1.2l-8,6.84,8,6.77a1,1,0,0,0,.1.27.31.31,0,0,1-.1.26Zm5,8.37a.48.48,0,0,0,.26-.07.43.43,0,0,0,.2-.2l9.38-32.73a1,1,0,0,0-.07-.34.64.64,0,0,0-.2-.2l-1.62-.46a.62.62,0,0,0-.33.07.36.36,0,0,0-.2.2l-9.37,32.73a.67.67,0,0,0,.07.34.43.43,0,0,0,.27.2Zm13.34-8.3a.33.33,0,0,1-.23.07.22.22,0,0,1-.23-.14l-1.2-1.33a.26.26,0,0,1-.1-.26.74.74,0,0,1,.1-.27l8-6.77-8-6.84a.42.42,0,0,1-.1-.2.26.26,0,0,1,.1-.26l1.2-1.4a.32.32,0,0,1,.45,0h0l9.57,8.43a.35.35,0,0,1,0,.49l0,.05Z" fill="#3d56a3"/><path d="M207.76,164.5a7.09,7.09,0,0,1,4.3,3.12,7.72,7.72,0,0,1,1.19,3.9l.1,6.91a4,4,0,0,1-3.86,4l-21.91.33a4,4,0,0,1-4-3.86l-.1-6.9a7.39,7.39,0,0,1,1.07-3.94,7.06,7.06,0,0,1,4.2-3.25l2-.62a9.22,9.22,0,0,1-2.14-5.88,9.09,9.09,0,0,1,1.22-4.8,9.62,9.62,0,0,1,3.43-3.54A9.22,9.22,0,0,1,198,148.5a9.44,9.44,0,0,1,4.81,1.22,9.84,9.84,0,0,1,3.55,3.47,9.5,9.5,0,0,1-.6,10.7Zm3.46,14-.1-6.91a5.21,5.21,0,0,0-1.11-3.13,4.94,4.94,0,0,0-2.82-2l-3.13-.89a9.6,9.6,0,0,1-11.55.18l-3.11,1a5,5,0,0,0-2.76,1.94,5.22,5.22,0,0,0-1,3.17l.11,6.9a1.8,1.8,0,0,0,1.82,1.77l21.91-.33a1.82,1.82,0,0,0,1.76-1.82Zm-13.16-27.84a7.43,7.43,0,1,0,6.58,11.07l0,0a7.43,7.43,0,0,0-6.6-11.05Z" fill="#3d56a3"/><path d="M113.16,96.5a12.32,12.32,0,0,1,6.37,1.73,13.11,13.11,0,0,1,4.65,4.65,12.42,12.42,0,0,1,1.73,6.37,12.19,12.19,0,0,1-.53,3.75,19.18,19.18,0,0,1-2,4c-.71,1.11-2.17,3.25-4.39,6.44l-4.51,6.4a1.67,1.67,0,0,1-2.33.33,2,2,0,0,1-.32-.33l-4.45-6.34c-2.21-3.19-3.68-5.33-4.38-6.44a17.82,17.82,0,0,1-2.06-4,11.47,11.47,0,0,1-.56-3.81,12.22,12.22,0,0,1,1.72-6.37,12.88,12.88,0,0,1,4.68-4.65A12.21,12.21,0,0,1,113.16,96.5Zm0,31.48,4.11-5.91c2.13-3.06,3.52-5.07,4.19-6a19.65,19.65,0,0,0,1.86-3.62,9.89,9.89,0,0,0,.46-3.15,10.63,10.63,0,1,0-21.25-.65c0,.22,0,.43,0,.65a9.63,9.63,0,0,0,.47,3.15,18.44,18.44,0,0,0,1.85,3.62c.67,1,2.06,3,4.19,6Q111.56,125.66,113.16,128Zm0-25.1a6.33,6.33,0,0,1,6.37,6.37,6.38,6.38,0,0,1-12.75.51,4.34,4.34,0,0,1,0-.51,6.15,6.15,0,0,1,1.86-4.52A6.09,6.09,0,0,1,113.16,102.88Zm0,10.62a4.06,4.06,0,0,0,3-1.26,4.16,4.16,0,0,0,.13-5.87,1.59,1.59,0,0,1-.13-.13,4.17,4.17,0,0,0-5.9-.1.47.47,0,0,0-.1.1,4.17,4.17,0,0,0-.09,5.91l.09.09A4,4,0,0,0,113.16,113.5Z" fill="#3d56a3"/></svg>
