<svg xmlns="http://www.w3.org/2000/svg" viewBox="0 0 300 300"><path fill="#f7b419" d="M95.31 168.71h29.86v27.62H95.31zM54.6 125.52h29.86v27.62H54.6zm165.33 33.32h29.86v27.62h-29.86z"/><path d="M118 171.93a3.49 3.49 0 0 1 3.52 3.48v25.89a3.53 3.53 0 0 1-3.51 3.53H87.42a3.48 3.48 0 0 1-2.5-1 3.44 3.44 0 0 1-1-2.5v-25.88a3.5 3.5 0 0 1 3.48-3.52H118zm0 2.35H87.42a1.13 1.13 0 0 0-1.18 1.07v26a1.18 1.18 0 0 0 .33.85 1.17 1.17 0 0 0 .85.33H118a1.15 1.15 0 0 0 .84-.33 1.18 1.18 0 0 0 .33-.85v-25.9a1.12 1.12 0 0 0-1.09-1.17zM93.29 179a2.35 2.35 0 0 1 0 4.7 2.4 2.4 0 0 1-1.7-.7 2.32 2.32 0 0 1 0-3.27 2.24 2.24 0 0 1 1.7-.73zm0 7a2.35 2.35 0 0 1 0 4.7 2.4 2.4 0 0 1-1.7-.7 2.32 2.32 0 0 1 0-3.27 2.23 2.23 0 0 1 1.65-.74zm0 7a2.35 2.35 0 0 1 0 4.7 2.4 2.4 0 0 1-1.7-.7 2.32 2.32 0 0 1 0-3.27 2.24 2.24 0 0 1 1.65-.68zm21.15-10.87a.47.47 0 0 1-.14.29.46.46 0 0 1-.3.15H98.43a.46.46 0 0 1-.29-.15.43.43 0 0 1-.15-.29v-1.77a.53.53 0 0 1 .44-.44H114a.38.38 0 0 1 .3.15.42.42 0 0 1 .14.29zm0 7a.47.47 0 0 1-.14.29.46.46 0 0 1-.3.15H98.43a.46.46 0 0 1-.29-.15.43.43 0 0 1-.15-.29v-1.76a.52.52 0 0 1 .44-.45H114a.38.38 0 0 1 .3.15.45.45 0 0 1 .14.3zm0 7.05a.47.47 0 0 1-.14.29.46.46 0 0 1-.3.15H98.43a.46.46 0 0 1-.29-.15.43.43 0 0 1-.15-.29v-1.76a.52.52 0 0 1 .44-.45H114a.38.38 0 0 1 .3.15.45.45 0 0 1 .14.3zm4.03-111.76a15.47 15.47 0 0 1 8.1 2.16 16.15 16.15 0 0 1 5.82 5.82 16.12 16.12 0 0 1 0 16.12 16.12 16.12 0 0 1-27.82 0 16.12 16.12 0 0 1 0-16.12 16.15 16.15 0 0 1 5.82-5.82 15.52 15.52 0 0 1 8.08-2.16zm0 29.6A13.51 13.51 0 0 0 132 100.59v-.13a13.58 13.58 0 0 0-25.33-6.83 13.79 13.79 0 0 0 0 13.65 13.58 13.58 0 0 0 11.8 6.72zm5.86-10.11a1.17 1.17 0 0 1 1.7-.11 1.33 1.33 0 0 1 .46.85 1 1 0 0 1-.31.88 9.42 9.42 0 0 1-3.43 2.63 10.47 10.47 0 0 1-8.56 0 9.42 9.42 0 0 1-3.43-2.63 1.19 1.19 0 0 1-.27-.88 1.24 1.24 0 0 1 .42-.85 1.13 1.13 0 0 1 .89-.31 1.08 1.08 0 0 1 .81.42 7.17 7.17 0 0 0 2.62 2 8 8 0 0 0 6.48 0 7.12 7.12 0 0 0 2.62-2zm-10.76-5.3a1.79 1.79 0 0 1-1.31-.54 1.85 1.85 0 1 1 2.61 0 1.89 1.89 0 0 1-1.3.54zm9.87 0a1.84 1.84 0 1 1 1.85-1.84 1.87 1.87 0 0 1-.54 1.3 1.82 1.82 0 0 1-1.34.54zm27.73-14.19a.69.69 0 0 1 .62.62v1.23a.6.6 0 0 1-.2.43.65.65 0 0 1-.42.19h-6.79v6.79a.66.66 0 0 1-.61.61h-1.2a.66.66 0 0 1-.61-.61v-6.79h-6.83a.68.68 0 0 1-.43-.19.65.65 0 0 1-.19-.43V85a.59.59 0 0 1 .19-.42.57.57 0 0 1 .43-.2h6.79v-6.74a.57.57 0 0 1 .19-.43.58.58 0 0 1 .46-.19h1.2a.65.65 0 0 1 .61.62v6.78z" fill="#3d56a3"/><path fill="#f7b419" d="M185.5 108.44h34.55v34.55H185.5z"/><path d="M213.57 118.77a.51.51 0 0 1 .53 0 .44.44 0 0 1 .28.45v13.4a3.9 3.9 0 0 1-3.85 3.93h-28.9a3.92 3.92 0 0 1-3.94-3.88v-28.89a3.91 3.91 0 0 1 3.89-3.93h24a.45.45 0 0 1 .46.28.44.44 0 0 1-.13.53l-1.55 1.64a.58.58 0 0 1-.41.17h-22.32a1.26 1.26 0 0 0-1.31 1.22v28.93a1.28 1.28 0 0 0 1.23 1.31h28.92a1.27 1.27 0 0 0 1.31-1.23v-11.88a.55.55 0 0 1 .17-.41zm-15.31 11.64l-8.19.9a1.73 1.73 0 0 1-1.89-1.54 1.93 1.93 0 0 1 0-.34l.91-8.2 25.64-25.65a3.47 3.47 0 0 1 4.84 0l4.34 4.35a3.48 3.48 0 0 1 0 4.83zm12.46-27.12l-19.1 19.09-.65 6.23 6.14-.74 19.1-19.09zm7-5.82a.79.79 0 0 0-.61-.25.82.82 0 0 0-.62.25l-3.92 3.93 5.49 5.49L222 103a.91.91 0 0 0 0-1.23zm-65.85 119.31a.45.45 0 0 1 .25.32.65.65 0 0 1 0 .39l-.16.25a.55.55 0 0 1-.32.26.86.86 0 0 1-.39 0l-7.81-4.51v9a.51.51 0 0 1-.15.36.5.5 0 0 1-.35.14h-.37a.64.64 0 0 1-.35-.14.51.51 0 0 1-.15-.36v-9l-7.8 4.51a.9.9 0 0 1-.4 0 .53.53 0 0 1-.31-.26l-.17-.25a.65.65 0 0 1 0-.39.51.51 0 0 1 .25-.32l7.81-4.5-7.88-4.51a.57.57 0 0 1-.25-.32.65.65 0 0 1 0-.39l.17-.25a.46.46 0 0 1 .31-.25.55.55 0 0 1 .4 0l7.8 4.51v-9a.48.48 0 0 1 .15-.36.52.52 0 0 1 .35-.14h.34a.43.43 0 0 1 .35.14.48.48 0 0 1 .15.36v9l7.81-4.51a.53.53 0 0 1 .39 0 .45.45 0 0 1 .32.25l.16.25a.65.65 0 0 1 0 .39.5.5 0 0 1-.25.32l-7.8 4.51zm41.6-52.58a3.63 3.63 0 0 1 0 3.93 26.77 26.77 0 0 1-46.05 0 3.67 3.67 0 0 1 0-3.93 26.75 26.75 0 0 1 46.05 0zm-2.21 2.62a1.16 1.16 0 0 0 0-1.31 21.91 21.91 0 0 0-4.51-5.49 24.45 24.45 0 0 0-6-4 12.1 12.1 0 0 1 2.82 7.85 12.3 12.3 0 0 1-1.76 6.39 13.23 13.23 0 0 1-22.7 0 12.5 12.5 0 0 1 1-14.25 24.25 24.25 0 0 0-10.5 9.49 1.13 1.13 0 0 0 0 1.31 24.31 24.31 0 0 0 32.81 8.65 23.28 23.28 0 0 0 8.84-8.64zm-10.32-3a9.79 9.79 0 0 0-1.4-5.12 10 10 0 0 0-3.81-3.68 11 11 0 0 0-10.57 0 10 10 0 0 0-3.81 3.69 10.05 10.05 0 0 0 3.81 13.93 11 11 0 0 0 10.57 0 10.12 10.12 0 0 0 3.84-3.62 9.73 9.73 0 0 0 1.37-5.15zm-15.74-.33a5.28 5.28 0 1 0 5.32-5.24h-.07a5 5 0 0 0-2.46.65 2 2 0 0 1 1.52.62 2.12 2.12 0 0 1-3 3 2 2 0 0 1-.61-1.51 4.87 4.87 0 0 0-.7 2.53zm-14.04-42.84a.82.82 0 0 1 1.15-.17.87.87 0 0 1 .16.17l1 .9a1.11 1.11 0 0 1 .25.74.89.89 0 0 1-.25.65l-24.6 24.58a.91.91 0 0 1-1.27.12l-.12-.12-9.75-9.75a.89.89 0 0 1-.25-.65 1.22 1.22 0 0 1 .25-.74l1-.9a.76.76 0 0 1 .66-.33.74.74 0 0 1 .65.33l8.12 8.11zm103.98 67.55a1 1 0 0 1 .29.7v.65a1 1 0 0 1-1 1h-40a1 1 0 0 1-1-1V160a.94.94 0 0 1 .28-.69 1 1 0 0 1 .7-.29h.66a1 1 0 0 1 1 1v27.88h38.35a.89.89 0 0 1 .72.3zm-28.57-12.91a.61.61 0 0 0-.49-.49h-1.64a.47.47 0 0 0-.33.17.47.47 0 0 0-.16.32v6.89a.42.42 0 0 0 .16.32.51.51 0 0 0 .33.17h1.64a.53.53 0 0 0 .32-.17.46.46 0 0 0 .17-.32zm7.86-10.48a.46.46 0 0 0-.16-.33.47.47 0 0 0-.33-.17h-1.64a.61.61 0 0 0-.49.5v17.37a.46.46 0 0 0 .17.32.56.56 0 0 0 .32.17h1.64a.51.51 0 0 0 .33-.17.42.42 0 0 0 .16-.32zm7.89 5.21a.55.55 0 0 0-.49-.49h-1.64a.55.55 0 0 0-.49.49v12.13a.42.42 0 0 0 .16.32.51.51 0 0 0 .33.17h1.64a.51.51 0 0 0 .33-.17.42.42 0 0 0 .16-.32zm7.87-7.87a.43.43 0 0 0-.17-.32.47.47 0 0 0-.33-.17h-1.63a.47.47 0 0 0-.33.17.43.43 0 0 0-.17.32v20a.46.46 0 0 0 .17.32.51.51 0 0 0 .33.17h1.63a.51.51 0 0 0 .33-.17.46.46 0 0 0 .17-.32zM90.48 117.12a3.9 3.9 0 0 1 3.93 3.88v28.87a3.82 3.82 0 0 1-1.14 2.79 3.88 3.88 0 0 1-2.79 1.15h-23.6A3.93 3.93 0 0 1 63 149.9V121a3.92 3.92 0 0 1 3.93-3.93h7.29l-.08-.66a4.58 4.58 0 0 1 7.83-3.23 4.36 4.36 0 0 1 1.35 3.23l-.08.66zm1.31 32.77V121a1.27 1.27 0 0 0-1.23-1.31h-4v1.64a1 1 0 0 1-.29.7 1 1 0 0 1-.7.28H71.8a1 1 0 0 1-1-1v-1.59h-3.92a1.26 1.26 0 0 0-1.31 1.28v28.87a1.31 1.31 0 0 0 .37 1 1.36 1.36 0 0 0 .94.37h23.6a1.36 1.36 0 0 0 .94-.37 1.27 1.27 0 0 0 .37-.98zM78.68 114.5a1.88 1.88 0 0 0-1.39.57 1.93 1.93 0 0 0-.58 1.39 1.91 1.91 0 0 0 .58 1.4 2 2 0 1 0 1.39-3.36zm-24.04 64.18l7.19 7.18a.79.79 0 0 1 .16.48.61.61 0 0 1-.16.42l-.47.47a.64.64 0 0 1-.42.15.87.87 0 0 1-.47-.15L53.28 180l-7.19 7.24a.87.87 0 0 1-.47.15.64.64 0 0 1-.42-.15l-.47-.47a.57.57 0 0 1-.16-.42.73.73 0 0 1 .16-.48l7.27-7.16-7.24-7.22a.74.74 0 0 1-.16-.47.54.54 0 0 1 .16-.42l.47-.47a.5.5 0 0 1 .42-.11.67.67 0 0 1 .47.16l7.19 7.18 7.19-7.18a.67.67 0 0 1 .47-.16.54.54 0 0 1 .42.16l.47.47a.54.54 0 0 1 .16.42.83.83 0 0 1-.16.47zm118.93 19.41a2.61 2.61 0 0 1 2.62 2.6 2.62 2.62 0 0 1-4.48 1.84 2.61 2.61 0 0 1-.76-1.82 2.66 2.66 0 0 1 2.62-2.62zm12.43 2.62a2.63 2.63 0 0 0-5.26-.06 2.63 2.63 0 1 0 5.26.06zm7.21-2.62a2.61 2.61 0 0 1 2.62 2.6 2.62 2.62 0 0 1-4.5 1.83 2.68 2.68 0 0 1-.75-1.81 2.65 2.65 0 0 1 2.66-2.62z" fill="#3d56a3"/></svg>