<svg xmlns="http://www.w3.org/2000/svg" viewBox="0 0 300 300"><path fill="#f7b419" d="M142.72 186.72h-61l10-32h40l11 32z"/><path d="M60.94 180.93a3.46 3.46 0 0 0 .2 1.19h-6.71a2.9 2.9 0 0 1-2.15-.89 3 3 0 0 1-.9-2.16v-3a5.28 5.28 0 0 1 3.45-5 6.34 6.34 0 0 1 5.05-10.22 6.18 6.18 0 0 1 2.66.59 7.31 7.31 0 0 1 2.19 1.6 8.53 8.53 0 0 0 .4 7.17 7.21 7.21 0 0 0-1.75 1.19 6.34 6.34 0 0 0-1.52 1.86 5.8 5.8 0 0 1-1.93.33 6.13 6.13 0 0 1-3.19-.86l-.86.27a2.84 2.84 0 0 0-1.69 1.13 3.1 3.1 0 0 0-.64 1.92v3a.86.86 0 0 0 .27.66.9.9 0 0 0 .66.27h6.46zM59.88 163a4.25 4.25 0 1 0 4.25 4.25 4.25 4.25 0 0 0-4.25-4.25zm18.66 7.7a7.46 7.46 0 0 1 2.66 1.53 5.92 5.92 0 0 1 2.06 4.65v4.05a3.3 3.3 0 0 1-3.26 3.32H65.38a3.29 3.29 0 0 1-3.33-3.25v-4.1a5.86 5.86 0 0 1 2.06-4.65 7.29 7.29 0 0 1 2.66-1.53 7.48 7.48 0 1 1 11.82 0zm2.59 10.23v-4.05a4.37 4.37 0 0 0-3-4.12l-1.4-.33a7.49 7.49 0 0 1-8.1 0l-1.4.33a4.34 4.34 0 0 0-3.05 4.12v4.05a1.09 1.09 0 0 0 .37.83 1.12 1.12 0 0 0 .83.36h14.6a1.27 1.27 0 0 0 1.15-1.19zm-8.5-20.05a5.31 5.31 0 1 0 3.74 1.55 5.3 5.3 0 0 0-3.74-1.55zm17.8 10.22a5.32 5.32 0 0 1 3.45 5v3a3 3 0 0 1-.9 2.16 2.93 2.93 0 0 1-2.15.89h-6.71a4 4 0 0 0 .2-1.19v-1h6.51a.93.93 0 0 0 .66-.27.9.9 0 0 0 .27-.66v-3a3.17 3.17 0 0 0-.64-1.92 2.9 2.9 0 0 0-1.69-1.11l-.86-.27a6.19 6.19 0 0 1-3.19.86 5.76 5.76 0 0 1-1.93-.33 6.67 6.67 0 0 0-1.52-1.86 7.12 7.12 0 0 0-1.8-1.19 8.61 8.61 0 0 0 .4-7.17 7.12 7.12 0 0 1 2.19-1.56 6.34 6.34 0 0 1 7.71 9.63zm-5.05.4a4.2 4.2 0 1 0-4.23-4.17 4.2 4.2 0 0 0 4.23 4.17zm36.56-13.57a3.46 3.46 0 0 0 .2 1.19h-6.71a2.9 2.9 0 0 1-2.15-.89 3 3 0 0 1-.9-2.16v-3a5.29 5.29 0 0 1 3.45-5 6.34 6.34 0 0 1 5-10.22 6.18 6.18 0 0 1 2.66.59 7.31 7.31 0 0 1 2.19 1.6 8.53 8.53 0 0 0 .4 7.17 6.86 6.86 0 0 0-1.7 1.22 6.34 6.34 0 0 0-1.52 1.86 5.8 5.8 0 0 1-1.93.33 6.13 6.13 0 0 1-3.19-.86l-.86.27a2.84 2.84 0 0 0-1.69 1.13 3.1 3.1 0 0 0-.64 1.92v3a.86.86 0 0 0 .27.66.9.9 0 0 0 .66.27H122zM120.88 140a4.2 4.2 0 1 0 3 1.23 4.13 4.13 0 0 0-3-1.23zm18.66 7.7a7.46 7.46 0 0 1 2.66 1.53 5.92 5.92 0 0 1 2.06 4.65v4a3.3 3.3 0 0 1-3.26 3.32h-14.6a3.29 3.29 0 0 1-3.33-3.27v-4.05a5.86 5.86 0 0 1 2.06-4.65 7.29 7.29 0 0 1 2.66-1.53 7.44 7.44 0 1 1 11.82 0zm2.59 10.23v-4a4.36 4.36 0 0 0-3-4.12l-1.4-.33a7.47 7.47 0 0 1-8.1 0l-1.4.33a4.34 4.34 0 0 0-3 4.12v4a1.09 1.09 0 0 0 .37.83 1.12 1.12 0 0 0 .83.36H141a1.27 1.27 0 0 0 1.2-1.19zm-8.5-20a5.33 5.33 0 1 0 3.75 1.51 5.06 5.06 0 0 0-3.75-1.56zm17.8 10.22a5.32 5.32 0 0 1 3.45 5v3a3 3 0 0 1-.9 2.16 2.93 2.93 0 0 1-2.15.89h-6.71a4 4 0 0 0 .2-1.19v-1h6.51a.93.93 0 0 0 .66-.27.9.9 0 0 0 .27-.66v-3a3.17 3.17 0 0 0-.64-1.92 2.9 2.9 0 0 0-1.69-1.13l-.86-.27a6.19 6.19 0 0 1-3.19.86 5.71 5.71 0 0 1-1.93-.33 6.67 6.67 0 0 0-1.52-1.86 7.12 7.12 0 0 0-1.8-1.19 8.61 8.61 0 0 0 .4-7.17 7.12 7.12 0 0 1 2.19-1.56 6.34 6.34 0 0 1 7.71 9.63zm-5.05.35a4.2 4.2 0 1 0-4.23-4.17 4.2 4.2 0 0 0 4.23 4.17zm-63.31-25.72a12.29 12.29 0 0 1 6.31 1.72 12.87 12.87 0 0 1 4.62 4.62 12.59 12.59 0 0 1 0 12.67 12.84 12.84 0 0 1-4.62 4.61 12.57 12.57 0 0 1-12.66 0 12.63 12.63 0 0 1 0-21.9 12.24 12.24 0 0 1 6.35-1.72zm-11 12.66a10.11 10.11 0 0 0 .51 3.27h4.6a24.63 24.63 0 0 1-.24-3.21 25.84 25.84 0 0 1 .21-3.29h-4.6a10.39 10.39 0 0 0-.51 3.23zM79.68 125a10.29 10.29 0 0 0-3.81 2.12 10.86 10.86 0 0 0-2.66 3.4h4.17a14.62 14.62 0 0 1 2.27-5.52zm-6.47 15.37a10.92 10.92 0 0 0 2.63 3.44 10.29 10.29 0 0 0 3.81 2.12 14.11 14.11 0 0 1-2.27-5.56zm14.35-4.91a29.56 29.56 0 0 0-.2-3.26h-8.58a26.42 26.42 0 0 0 0 6.53h8.6a29.86 29.86 0 0 0 .18-3.29zm-4.49-11c-.72 0-1.45.54-2.2 1.63a12.29 12.29 0 0 0-1.78 4.43h8A12.53 12.53 0 0 0 85.3 126c-.79-1.05-1.52-1.59-2.23-1.59zm0 22c.71 0 1.44-.54 2.19-1.63a12.53 12.53 0 0 0 1.79-4.49h-8a12.22 12.22 0 0 0 1.78 4.49c.79 1.12 1.55 1.69 2.24 1.69zm9.85-15.94a10.92 10.92 0 0 0-2.63-3.44 10.33 10.33 0 0 0-3.8-2.12 14.38 14.38 0 0 1 2.25 5.56zm-6.38 15.41a10.35 10.35 0 0 0 3.75-2.12 10.92 10.92 0 0 0 2.63-3.44h-4.18a15.32 15.32 0 0 1-2.2 5.54zm2.45-7.2h4.6a10.86 10.86 0 0 0 0-6.53H89a27 27 0 0 1 .2 3.24 27.8 27.8 0 0 1-.2 3.27zm81.49-16.23a.47.47 0 0 1 .2.26.58.58 0 0 1 0 .32l-.14.2a.4.4 0 0 1-.25.21.58.58 0 0 1-.32 0l-6.33-3.65v7.31a.4.4 0 0 1-.12.28.42.42 0 0 1-.29.12H163a.41.41 0 0 1-.4-.4v-7.33l-6.36 3.68a.58.58 0 0 1-.32 0 .4.4 0 0 1-.26-.21l-.13-.2a.44.44 0 0 1 0-.32.45.45 0 0 1 .21-.26l6.33-3.65-6.33-3.66a.37.37 0 0 1-.21-.25.44.44 0 0 1 0-.32l.13-.2a.4.4 0 0 1 .26-.21.58.58 0 0 1 .32 0l6.33 3.65v-7.26a.36.36 0 0 1 .12-.29.33.33 0 0 1 .28-.11h.27a.37.37 0 0 1 .29.11.45.45 0 0 1 .12.29v7.31l6.33-3.65a.58.58 0 0 1 .32 0 .37.37 0 0 1 .25.21l.14.2a.58.58 0 0 1 0 .32.39.39 0 0 1-.2.25l-6.33 3.66zm-11.29 51.68a.82.82 0 0 1-.42-.51.58.58 0 0 1 .11-.58l7.57-13.59-3.9 1.1a.8.8 0 0 1-.61-.07.74.74 0 0 1-.37-.48l-.19-.55a.71.71 0 0 1 .07-.6.77.77 0 0 1 .48-.38l6.4-1.79a1 1 0 0 1 .81.08 1 1 0 0 1 .5.65l1.79 6.39a.82.82 0 0 1-.54 1l-.51.14a.79.79 0 0 1-1-.5.07.07 0 0 1 0-.05l-1.1-3.9-7.59 13.56a.63.63 0 0 1-.44.4.8.8 0 0 1-.64-.09zm17.61-19.79a.79.79 0 0 0 .49-.37.86.86 0 0 0 .07-.61l-.15-.51a.79.79 0 0 0-1-.57l-3.83 1.09 7.56-13.57a.66.66 0 0 0 .12-.59.84.84 0 0 0-.42-.5l-.41-.23a.83.83 0 0 0-.65-.09.61.61 0 0 0-.44.4l-7.64 13.53-1.12-3.89a.8.8 0 0 0-1-.56l-.51.14a.68.68 0 0 0-.49.41.75.75 0 0 0-.08.6l1.8 6.4a1.05 1.05 0 0 0 .5.65 1 1 0 0 0 .81.08z" fill="#3d56a3"/><path fill="#f7b419" d="M204.73 112.72h28v28h-28z"/><path d="M245.44 126.5a3.18 3.18 0 0 1 3.19 3.17v19.14a3.19 3.19 0 0 1-3.17 3.19h-12.77l1.6 6.38h4.78a1 1 0 0 1 .76.29 1 1 0 0 1 .3.77 1 1 0 0 1-.94 1.06h-19.25a1 1 0 0 1-1.06-.94.24.24 0 0 1 0-.12 1 1 0 0 1 1.06-1.06h4.78l1.6-6.38h-12.75a3.17 3.17 0 0 1-3.19-3.17v-19.14a3.18 3.18 0 0 1 3.17-3.19h31.89zm1.06 22.31v-19.12a1 1 0 0 0-.93-1.07h-32a1 1 0 0 0-1.07.92.38.38 0 0 0 0 .15v19.12a1 1 0 0 0 .92 1.07h32a1 1 0 0 0 1.06-.94zm-19.58 9.57h5.17l-1.09-4.26h-3zm-115.38 36.75a.24.24 0 0 1-.23.14.3.3 0 0 1-.23-.07l-9.57-8.43a.34.34 0 0 1-.05-.49l.05-.05 9.57-8.43a.43.43 0 0 1 .46 0l1.2 1.4a.31.31 0 0 1 .1.26.75.75 0 0 1-.1.2l-8 6.84 8 6.77a1 1 0 0 0 .1.27.31.31 0 0 1-.1.26zm5 8.37a.48.48 0 0 0 .26-.07.43.43 0 0 0 .2-.2l9.38-32.73a1 1 0 0 0-.07-.34.64.64 0 0 0-.2-.2l-1.62-.46a.62.62 0 0 0-.33.07.36.36 0 0 0-.2.2l-9.37 32.73a.67.67 0 0 0 .07.34.43.43 0 0 0 .27.2zm13.34-8.3a.33.33 0 0 1-.23.07.22.22 0 0 1-.23-.14l-1.2-1.33a.26.26 0 0 1-.1-.26.74.74 0 0 1 .1-.27l8-6.77-8-6.84a.42.42 0 0 1-.1-.2.26.26 0 0 1 .1-.26l1.2-1.4a.32.32 0 0 1 .45 0l9.57 8.43a.35.35 0 0 1 0 .49v.05zm77.88-30.7a7.09 7.09 0 0 1 4.3 3.12 7.72 7.72 0 0 1 1.19 3.9l.1 6.91a4 4 0 0 1-3.86 4l-21.91.33a4 4 0 0 1-4-3.86l-.1-6.9a7.39 7.39 0 0 1 1.07-3.94 7.06 7.06 0 0 1 4.2-3.25l2-.62a9.22 9.22 0 0 1-2.14-5.88 9.09 9.09 0 0 1 1.22-4.8 9.62 9.62 0 0 1 3.43-3.54 9.22 9.22 0 0 1 4.74-1.47 9.44 9.44 0 0 1 4.81 1.22 9.84 9.84 0 0 1 3.55 3.47 9.5 9.5 0 0 1-.6 10.7zm3.46 14l-.1-6.91a5.21 5.21 0 0 0-1.11-3.13 4.94 4.94 0 0 0-2.82-2l-3.13-.89a9.6 9.6 0 0 1-11.55.18l-3.11 1a5 5 0 0 0-2.76 1.94 5.22 5.22 0 0 0-1 3.17l.11 6.9a1.8 1.8 0 0 0 1.82 1.77l21.91-.33a1.82 1.82 0 0 0 1.76-1.82zm-13.16-27.84a7.43 7.43 0 1 0 6.58 11.07 7.43 7.43 0 0 0-6.6-11.05zm-84.9-54.16a12.32 12.32 0 0 1 6.37 1.73 13.11 13.11 0 0 1 4.65 4.65 12.42 12.42 0 0 1 1.73 6.37 12.19 12.19 0 0 1-.53 3.75 19.18 19.18 0 0 1-2 4c-.71 1.11-2.17 3.25-4.39 6.44l-4.51 6.4a1.67 1.67 0 0 1-2.33.33 2 2 0 0 1-.32-.33l-4.45-6.34c-2.21-3.19-3.68-5.33-4.38-6.44a17.82 17.82 0 0 1-2.06-4 11.47 11.47 0 0 1-.56-3.81 12.22 12.22 0 0 1 1.72-6.37 12.88 12.88 0 0 1 4.68-4.65 12.21 12.21 0 0 1 6.38-1.73zm0 31.48l4.11-5.91c2.13-3.06 3.52-5.07 4.19-6a19.65 19.65 0 0 0 1.86-3.62 9.89 9.89 0 0 0 .46-3.15 10.63 10.63 0 1 0-21.25-.65v.65a9.63 9.63 0 0 0 .47 3.15 18.44 18.44 0 0 0 1.85 3.62c.67 1 2.06 3 4.19 6q2.52 3.59 4.12 5.93zm0-25.1a6.33 6.33 0 0 1 6.37 6.37 6.38 6.38 0 0 1-12.75.51 4.34 4.34 0 0 1 0-.51 6.15 6.15 0 0 1 1.86-4.52 6.09 6.09 0 0 1 4.52-1.85zm0 10.62a4.06 4.06 0 0 0 3-1.26 4.16 4.16 0 0 0 .13-5.87 1.59 1.59 0 0 1-.13-.13 4.17 4.17 0 0 0-5.9-.1.47.47 0 0 0-.1.1 4.17 4.17 0 0 0-.09 5.91l.09.09a4 4 0 0 0 3 1.26z" fill="#3d56a3"/></svg>