<svg viewBox="0 0 118.38 108" xmlns="http://www.w3.org/2000/svg"><path d="m91.55 4.82h-64.71l-26.74 49.34 24.81 50.6h68.56l24.81-50.6z" fill="#5e6d69"/><path d="m67.26 83.16-4.04 4.05m3.92-.13-3.8-3.79m-26.48-46.77-4.05 4.05m3.92-.13-3.79-3.79m32.92-14.49-4.05 4.04m3.92-.12-3.79-3.8" fill="none" stroke="#fff" stroke-linecap="round" stroke-linejoin="round" stroke-width="1.36"/><path d="m59.19 12.1 24.74 3.64 21 38.74-19.13 39-26.61 2.16-26.58-2.14-19.14-39 21-38.74zm0-12.1-32.41 4.77-26.78 49.43 24.86 50.68 34.33 2.78 34.34-2.78 24.85-50.68-26.78-49.43-32.41-4.77z" fill="#d3d5d4"/><path d="m40.56 7.19.12.84s-.64.05-1 .11c-.77.14-1 .57-.79 1.47s.51 1.34 1.31 1.19c.32-.06.93-.24.93-.24l.18.82a8.77 8.77 0 0 1 -1.24.36c-1.19.26-1.83-.41-2.07-1.94s.14-2.28 1.34-2.51a7.5 7.5 0 0 1 1.22-.1zm4.89 1.36c.2 1.29-.07 2.32-1.53 2.54s-2-.65-2.23-2 .1-2.29 1.55-2.51 2.02.69 2.21 1.97zm-1 .15c-.13-.81-.4-1.33-1.09-1.23s-.81.67-.69 1.5.37 1.39 1.11 1.27.81-.72.68-1.54zm5.7 1.5-1 .11v-.19a2.57 2.57 0 0 1 -1 .4c-1.18.14-1.7-.69-1.86-2.09s.37-2.3 1.51-2.42a5.71 5.71 0 0 1 .89 0l-.2-1.79 1-.11zm-1.1-.89-.27-2.44a3.85 3.85 0 0 0 -.82 0c-.55.06-.78.58-.68 1.46s.35 1.36.91 1.3a2.57 2.57 0 0 0 .86-.32zm5.48-.31.07.73a7.53 7.53 0 0 1 -1.63.33c-1.34.09-1.9-.64-2-2.08s.47-2.35 1.67-2.44 1.86.6 1.94 1.85v.7l-2.58.2c0 .57.32 1 1 .92s1.53-.21 1.53-.21zm-.93-1.6c-.05-.71-.3-1.07-.9-1s-.81.46-.77 1.15zm4.16 1.38-2.49.07v-.81l1.42-4h1.11l-1.39 3.84h1.32v-1.61h1v1.61h.58v1h-.58v1h-1zm4.84-5.03c1 0 1.81.48 1.79 1.54a1.37 1.37 0 0 1 -.72 1.4 1.28 1.28 0 0 1 .8 1.4c0 1.19-.83 1.68-1.93 1.66l-2.22-.05.11-6zm-1.23 3.39v1.67h1.17a.8.8 0 0 0 .88-.81.83.83 0 0 0 -.89-.83zm.05-2.51v1.63h1.13a.77.77 0 0 0 .82-.85.73.73 0 0 0 -.81-.78zm7.31 4.24c0 .31.12.39.37.47l-.12.83a1.78 1.78 0 0 1 -1.14-.38 3.2 3.2 0 0 1 -1.29.21 1.3 1.3 0 0 1 -1.23-1.47c.06-.89.65-1.22 1.51-1.22h1v-.28c0-.36-.14-.55-.47-.57-.78-.06-1.68 0-1.68 0v-.82a15.73 15.73 0 0 1 1.77-.06c.93.06 1.41.5 1.34 1.56zm-1.84-.87a.53.53 0 0 0 -.57.55c0 .35.14.59.43.61a3.54 3.54 0 0 0 1-.11l.07-1zm6.32-1.79-.13.79s-.62-.14-1-.17c-.78-.09-1.09.26-1.19 1.18s.1 1.43.9 1.52h1l-.07.84a8.17 8.17 0 0 1 -1.3 0c-1.24-.14-1.67-.94-1.5-2.49s.81-2.14 2-2a7.64 7.64 0 0 1 1.29.33zm3.79 3.71a.43.43 0 0 0 .33.5l-.19.81a1.74 1.74 0 0 1 -1.14-.48 3.18 3.18 0 0 1 -1.3.11 1.31 1.31 0 0 1 -1.09-1.58c.13-.88.75-1.15 1.6-1.08l1 .07v-.27a.47.47 0 0 0 -.41-.62c-.77-.12-1.68-.17-1.68-.17l.09-.81a14.46 14.46 0 0 1 1.78.09 1.27 1.27 0 0 1 1.2 1.67zm-1.75-1a.53.53 0 0 0 -.62.5.51.51 0 0 0 .37.65 3.4 3.4 0 0 0 1 0l.17-1zm7.16-1.13-.87 4.21-1-.2v-.21a3 3 0 0 1 -1.13.08c-1.09-.22-1.3-.94-1-2.41l.46-2.21 1 .2-.46 2.21c-.18.88-.14 1.29.4 1.41a3 3 0 0 0 .92 0l.67-3.26z" fill="#5e6d69"/><g fill="none" stroke="#fff" stroke-linecap="round" stroke-linejoin="round" stroke-width="1.32"><path d="m51.02 70.38-2.86-10.54h-12.67l-2.96 10.54zm5.18-3.44-5.21 3.38m-4.36-17.81-11.14 7.33m38.24 10.54-2.87-10.54h-12.67l-2.96 10.54zm17.02-11.19-2.87-10.54h-7.58m-9.44 11.19 17.02-11.19m2.9 10.59-17.09 11.08"/><path d="m83.67 55.13 2.78-1.94.74 3.14m-23.91 3.51-2.87-10.55h-12.67l-2.96 10.55zm17.02-11.19-2.87-10.55h-12.67m-4.35 11.19 17.02-11.19m2.9 10.6-17.09 11.08m1.52-21.68-17.02 11.19"/><path d="m73.22 44.59 2.78-1.94.74 3.14"/></g></svg>