<svg xmlns="http://www.w3.org/2000/svg" viewBox="0 0 118.38 108"><path fill="#1c8a44" d="M91.6 4.94L59.19.17 26.78 4.94 0 54.38l24.86 50.68 34.33 2.77 34.34-2.77 24.85-50.68L91.6 4.94z"/><path d="M59.19 12.45l24.62 3.63 20.9 38.57-19 38.85-26.52 2.14-26.47-2.14-19-38.85 20.9-38.57 24.62-3.63m0-12.28L26.78 4.94 0 54.38l24.86 50.68 34.33 2.77 34.34-2.77 24.85-50.68L91.6 4.94 59.19.17z" fill="#87c662"/><path d="M59.41 43.37s-15.35 0-23.35 6c0 0 3.46.63 2.3 4.73 8.06-4.29 21-4.29 21-4.29m.05-6.44s15.35 0 23.34 6c0 0-3.45.63-2.3 4.73-8.06-4.29-21-4.29-21-4.29" fill="none" stroke="#fff" stroke-linecap="round" stroke-linejoin="round" stroke-width="1.09"/><path d="M82.75 49.32s2.43-9.6 11.58-11.13c0 0-2.11-3.58-7-.45 0 0 .44-4-1.35-5.69 0 0-1.15.12-2.3 3.64A15 15 0 0 0 82 34a4.6 4.6 0 0 1-1.28-1.47s-1.34.7-1.08 3.39c0 0-4 2.17-2.75 5.43s5.43 2.88 5.56.26-2.69-2.17-2.49-.51-2.75-2 .25-2.94c2.55-.82 4.67 2.29 3.66 4.53a5.61 5.61 0 0 1-2.44 2.63 4.75 4.75 0 0 1-4-.13s-2.91-1-3.9-8.12c0 0-6 5.72-7.23 5.6s-4.57-4.45-4.57-4.45 2.49 2.53 6.11-1.5c0 0 1.53-2.14 4.06-.13a2.31 2.31 0 0 0-1.34-3.26c-2.47-1-2.34.51-2.85.29s.74-.9.64-2.43a3.31 3.31 0 0 1 .35-2.12s-2.09-.3-4.08 3.31-2.62 3.12-3.1 3.09-1.22-.58 0-1.73 4.94-3.05 2.92-8.38l-3.07 3.17a8.31 8.31 0 0 0-2-6.81 8.3 8.3 0 0 0-2 6.81l-3.07-3.17c-2 5.33 1.71 7.23 2.93 8.38s.51 1.7 0 1.73-1.09.65-3.07-3-4.06-3.37-4.06-3.37a3.31 3.31 0 0 1 .35 2.12c-.09 1.53 1.15 2.2.64 2.43s-.38-1.32-2.84-.29a2.31 2.31 0 0 0-1.35 3.26c2.53-2 4.06.13 4.06.13 3.62 4 6.11 1.5 6.11 1.5s-3.29 4.32-4.57 4.45-7.23-5.6-7.23-5.6c-1 7.13-3.9 8.12-3.9 8.12a4.75 4.75 0 0 1-4 .13A5.61 5.61 0 0 1 35 42.72c-1-2.24 1.11-5.35 3.66-4.53 3 1 .06 4.6.26 2.94s-2.63-2.11-2.5.51 4.29 3 5.57-.26S39.2 36 39.2 36c.25-2.69-1.09-3.39-1.09-3.39A4.6 4.6 0 0 1 36.83 34a15 15 0 0 0-1.73 1.66c-1.15-3.52-2.3-3.64-2.3-3.64-1.79 1.72-1.34 5.69-1.34 5.69-4.86-3.13-7 .45-7 .45 9.15 1.53 11.58 11.13 11.58 11.13M71.08 51v7.88c0 1.91 1.18 5.37 3.39 6.61s3.16.68 4.6 0 2.12-2.82 4.69-1.41" fill="none" stroke="#fff" stroke-linecap="round" stroke-linejoin="round" stroke-width="1.09"/><path d="M83 65.07a1.23 1.23 0 1 0-.37-1.7 1.23 1.23 0 0 0 .37 1.7z" fill="#fff"/><path fill="none" stroke="#fff" stroke-linecap="round" stroke-linejoin="round" stroke-width="1.09" d="M59.41 50.97v18.62l5.66 5.66v7.77l6.61 6.61"/><path d="M70.77 90.46a1.23 1.23 0 1 0 1.73-1.74 1.23 1.23 0 0 0-1.73 1.74z" fill="#fff"/><path fill="none" stroke="#fff" stroke-linecap="round" stroke-linejoin="round" stroke-width="1.09" d="M64.68 55.6v13.61l-2.83 2.83"/><circle cx="64.68" cy="55.66" r="1.23" fill="#fff"/><path fill="none" stroke="#fff" stroke-linecap="round" stroke-linejoin="round" stroke-width="1.09" d="M68.42 62.7v9.34l4.68 4.67v3.53l3.41 3.41"/><circle cx="68.42" cy="62.76" r="1.23" fill="#fff"/><path d="M75.6 84.47a1.22 1.22 0 1 0 0-1.73 1.22 1.22 0 0 0 0 1.73z" fill="#fff"/><path fill="none" stroke="#fff" stroke-linecap="round" stroke-linejoin="round" stroke-width="1.09" d="M71.08 74.69l3.36-3.36 5.8 5.81"/><path d="M79.33 78a1.22 1.22 0 1 0 0-1.73 1.22 1.22 0 0 0 0 1.73z" fill="#fff"/><path fill="none" stroke="#fff" stroke-linecap="round" stroke-linejoin="round" stroke-width="1.09" d="M68.42 67.67l2.85 2.85 3.12-3.12 3.88 3.88 2.36-2.37 1.77 1.77"/><path d="M81.49 71.5a1.22 1.22 0 1 0 0-1.73 1.22 1.22 0 0 0 0 1.73z" fill="#fff"/><path fill="none" stroke="#fff" stroke-linecap="round" stroke-linejoin="round" stroke-width="1.09" d="M63.59 73.77l-2.53 2.52v11.05l2.69 2.68h3.61"/><path d="M67.29 91.25A1.23 1.23 0 1 0 66.07 90a1.23 1.23 0 0 0 1.22 1.25z" fill="#fff"/><path fill="none" stroke="#fff" stroke-linecap="round" stroke-linejoin="round" stroke-width="1.09" d="M65.07 78.9h4.54v3.76l2.84 2.84M47.77 51v7.88c0 1.91-1.18 5.37-3.39 6.61s-3.16.68-4.6 0-2.12-2.82-4.69-1.41"/><path d="M34.49 63a1.23 1.23 0 1 0 1.69.37 1.23 1.23 0 0 0-1.69-.37z" fill="#fff"/><path fill="none" stroke="#fff" stroke-linecap="round" stroke-linejoin="round" stroke-width="1.09" d="M59.45 69.59l-5.66 5.66v7.77l-6.62 6.61"/><path d="M46.35 88.72a1.23 1.23 0 0 0 0 1.74 1.23 1.23 0 1 0 1.74-1.74 1.23 1.23 0 0 0-1.74 0z" fill="#fff"/><path fill="none" stroke="#fff" stroke-linecap="round" stroke-linejoin="round" stroke-width="1.09" d="M54.17 55.6v13.61L57 72.04"/><circle cx="54.17" cy="55.66" r="1.23" fill="#fff"/><path fill="none" stroke="#fff" stroke-linecap="round" stroke-linejoin="round" stroke-width="1.09" d="M50.43 62.7v9.34l-4.68 4.67v3.53l-3.41 3.41"/><circle cx="50.43" cy="62.76" r="1.23" fill="#fff"/><path d="M41.52 82.74a1.22 1.22 0 1 0 1.73 0 1.22 1.22 0 0 0-1.73 0z" fill="#fff"/><path fill="none" stroke="#fff" stroke-linecap="round" stroke-linejoin="round" stroke-width="1.09" d="M47.77 74.69l-3.35-3.36-5.81 5.81"/><path d="M37.79 76.23a1.22 1.22 0 1 0 1.73 0 1.22 1.22 0 0 0-1.73 0z" fill="#fff"/><path fill="none" stroke="#fff" stroke-linecap="round" stroke-linejoin="round" stroke-width="1.09" d="M50.43 67.67l-2.85 2.85-3.12-3.12-3.87 3.88-2.37-2.37-1.77 1.77"/><path d="M35.63 69.77a1.22 1.22 0 1 0 1.73 0 1.22 1.22 0 0 0-1.73 0z" fill="#fff"/><path fill="none" stroke="#fff" stroke-linecap="round" stroke-linejoin="round" stroke-width="1.09" d="M55.27 73.77l2.52 2.52v11.05l-2.69 2.68h-3.6"/><path d="M51.56 88.8a1.23 1.23 0 1 0 1.23 1.2 1.23 1.23 0 0 0-1.23-1.2z" fill="#fff"/><path fill="none" stroke="#fff" stroke-linecap="round" stroke-linejoin="round" stroke-width="1.09" d="M53.79 78.9h-4.55v3.76L46.4 85.5"/><path fill="none" stroke="#fff" stroke-linecap="round" stroke-linejoin="round" stroke-width=".8" d="M26.39 58.91l-3.62 3.62m3.51-.11l-3.4-3.4m75.07-8.79l-3.62 3.63m3.51-.11l-3.4-3.4M43.45 19.3l-3.62 3.63m3.51-.12l-3.4-3.4"/><path d="M39.73 7.88l.14.82a9.3 9.3 0 0 0-.94.12c-.76.16-.94.58-.76 1.47s.52 1.31 1.3 1.15c.32-.06.92-.25.92-.25l.19.81a8.92 8.92 0 0 1-1.22.37c-1.21.25-1.85-.38-2.16-1.88s.1-2.25 1.28-2.5a6.77 6.77 0 0 1 1.25-.11zm4.86 1.27c.22 1.27 0 2.29-1.47 2.53s-2-.62-2.23-1.91.06-2.26 1.49-2.5 2 .62 2.21 1.88zm-1 .16c-.14-.8-.42-1.31-1.1-1.19s-.79.67-.65 1.49.4 1.39 1.16 1.23.75-.72.62-1.53zm5.64 1.4l-1 .12v-.19a2.56 2.56 0 0 1-1 .42c-1.16.15-1.69-.66-1.86-2s.33-2.27 1.45-2.41a6.09 6.09 0 0 1 .88 0l-.23-1.77 1-.12zm-1.1-.86l-.31-2.41a4.34 4.34 0 0 0-.81 0c-.53.07-.75.58-.64 1.45s.37 1.33.92 1.26a2.74 2.74 0 0 0 .84-.3zm5.43-.37l.08.72a7.23 7.23 0 0 1-1.6.35c-1.32.11-1.88-.61-2-2s.43-2.33 1.62-2.44 1.83.57 1.94 1.8v.69l-2.53.22a.85.85 0 0 0 1 .89c.58-.08 1.49-.23 1.49-.23zm-.94-1.56c-.06-.71-.32-1.06-.9-1s-.8.47-.75 1.15zm4.11 1.27l-2.45.11v-.8l1.34-3.95h1.09l-1.33 3.77 1.31-.06-.07-1.59h1l.07 1.59h.57v.93h-.57v1l-1 .05zm4.68-5.05c1 0 1.8.45 1.8 1.5A1.35 1.35 0 0 1 62.52 7a1.27 1.27 0 0 1 .81 1.37c0 1.18-.79 1.67-1.87 1.67h-2.2v-5.9zm-1.15 3.38v1.65h1.15a.8.8 0 0 0 .89-.85.81.81 0 0 0-.9-.8zm0-2.48v1.61h1.12a.75.75 0 0 0 .79-.84.73.73 0 0 0-.81-.81zm4.25.82h1v.45a3.3 3.3 0 0 1 1.26-.5v1a4.65 4.65 0 0 0-1.26.36l-.12 2.91h-1zm6.08 3.5c0 .3.11.39.36.47l-.13.81a1.75 1.75 0 0 1-1.13-.39 3.2 3.2 0 0 1-1.27.2A1.29 1.29 0 0 1 67.23 9c.07-.88.66-1.19 1.51-1.18h1v-.27c0-.36-.12-.56-.45-.58-.77-.06-1.66-.05-1.66-.05v-.81a13.57 13.57 0 0 1 1.76 0c.91.07 1.38.51 1.29 1.55zm-1.8-.87a.53.53 0 0 0-.58.54c0 .34.14.59.42.61a3.92 3.92 0 0 0 1-.09l.08-1zm6.36-.81s-1-.27-1.46-.33-.68.07-.72.39.12.35.78.55c1 .33 1.39.66 1.28 1.5-.12 1-.85 1.27-1.82 1.14a9.76 9.76 0 0 1-1.54-.39l.13-.79s1 .27 1.43.32.79 0 .83-.38-.08-.36-.71-.57c-.93-.31-1.47-.61-1.35-1.48a1.37 1.37 0 0 1 1.73-1.14 10.32 10.32 0 0 1 1.54.39zm4.57 2.01c-.22 1.27-.8 2.14-2.23 1.89S75.8 10.33 76 9s.82-2.11 2.24-1.86 1.7 1.29 1.48 2.55zm-1-.17c.14-.8 0-1.37-.64-1.49s-1 .36-1.11 1.18-.1 1.41.64 1.54.99-.42 1.14-1.23zM81.74 8v3.56h.19l1.56-3.2 1 .22-2 3.92-1.62-.36-.11-4.4z" fill="#1c8a44"/></svg>