<svg viewBox="0 0 118.38 108" xmlns="http://www.w3.org/2000/svg"><path d="m91.6 4.94-32.41-4.77-32.41 4.77-26.78 49.44 24.86 50.68 34.33 2.77 34.34-2.77 24.85-50.68z" fill="#ab203c"/><path d="m59.19 12.45 24.62 3.63 20.9 38.57-19 38.85-26.52 2.14-26.47-2.14-19-38.85 20.9-38.57 24.62-3.63m0-12.28-32.46 4.77-26.78 49.44 24.86 50.68 34.33 2.77 34.34-2.77 24.85-50.68-26.78-49.44-32.41-4.77z" fill="#e4556f"/><g fill="none" stroke="#fff" stroke-linecap="round" stroke-linejoin="round"><circle cx="54.33" cy="71.58" r="5.1" stroke-width="1.11"/><circle cx="64.05" cy="64.93" r="5.1" stroke-width="1.11"/><circle cx="73.77" cy="58.29" r="5.1" stroke-width="1.11"/><circle cx="65.17" cy="77" r="5.1" stroke-width="1.11"/><circle cx="74.89" cy="70.36" r="5.1" stroke-width="1.11"/><circle cx="76.01" cy="82.43" r="5.1" stroke-width="1.11"/><circle cx="52.99" cy="59.19" r="5.1" stroke-width="1.11"/><circle cx="62.71" cy="52.54" r="5.1" stroke-width="1.11"/><path d="m71.57 34.48a5.85 5.85 0 0 0 -9.63 6.59c2.32 3.4 7.57 4.38 11.54 1.67s5-8 2.62-11.36c-3.48-5.1-10.25-5.87-15.35-2.39s-6.83 10.08-3.35 15.18m-5.12 1.08c-2.68-8.43-6.63-10.93-10.85-9.46-1.49.49-2 1.47-4.46 1.71-3 0-5.71 2.45-8.69 3.43 1.47 3 4.92 7.2 8.38 8.21 1.73.5 2.22 2.49 3.45 3.73 2.22 2.49 9.42-1.69 11.89-6.87-6.91-3.74-15.09-3.29-15.09-3.29 2.26-.49 9.19.04 15.37 2.54z" stroke-width="1.11"/><path d="m36.13 76.54-4.05 4.05m3.93-.12-3.8-3.8m65.04-23.02-4.05 4.06m3.93-.13-3.81-3.8m-43.62-33.61-4.05 4.05m3.93-.12-3.8-3.8" stroke-width=".9"/></g><path d="m35.86 8.35.15.82s-.62.07-.94.14c-.75.17-.93.59-.73 1.48s.55 1.31 1.32 1.13c.32-.07.91-.26.91-.26l.21.8a7.75 7.75 0 0 1 -1.22.39c-1.2.27-1.85-.34-2.19-1.85s.07-2.24 1.25-2.51a7.09 7.09 0 0 1 1.24-.14zm4.86 1.19c.24 1.27 0 2.29-1.42 2.55s-2-.58-2.27-1.86 0-2.26 1.44-2.53 2.02.58 2.25 1.84zm-1 .18c-.15-.8-.44-1.3-1.12-1.18s-.78.69-.62 1.5.4 1.36 1.13 1.22.79-.73.64-1.54zm5.68 1.28-1 .14v-.2a2.54 2.54 0 0 1 -1 .44c-1.16.17-1.7-.63-1.91-2s.3-2.27 1.41-2.43a5.59 5.59 0 0 1 .88 0l-.25-1.76 1-.14zm-1.11-.84-.36-2.41a4.75 4.75 0 0 0 -.81 0c-.53.08-.74.6-.61 1.47s.39 1.33.94 1.25a2.83 2.83 0 0 0 .84-.29zm5.41-.45.1.72a7.27 7.27 0 0 1 -1.6.37c-1.32.14-1.89-.57-2-2s.39-2.34 1.57-2.46 1.84.53 2 1.75v.7l-2.52.26c.06.56.34.94 1 .87s1.45-.21 1.45-.21zm-1-1.55c-.07-.7-.33-1-.92-1s-.78.48-.72 1.16zm4.19 1.2-2.46.16v-.81l1.27-4 1.1-.07-1.28 3.87 1.31-.08-.1-1.59 1-.06.1 1.59h.57l.06.93h-.58l.07 1-1 .07zm6.05.64a14.32 14.32 0 0 1 -1.63.21c-1.72 0-2.18-1-2.22-3s.49-3.07 2.1-3.11a10.46 10.46 0 0 1 1.65.17v.88s-1-.1-1.47-.09c-1 0-1.25.56-1.22 2.13s.27 2.09 1.33 2.06c.4 0 1.44-.13 1.44-.13zm.93.12.15-6h1l-.02 1.88a4 4 0 0 1 1.1-.21c1.12 0 1.43.82 1.4 2.16l-.06 2.24h-1l.02-2.19c0-.72-.06-1.24-.62-1.26a3.71 3.71 0 0 0 -.91.15l-.09 3.31zm4.96-4.12 1 .06-.26 4.26-1-.06zm.1-1.66 1 .06-.06 1-1-.06zm5.07 2.99s-1-.23-1.48-.27-.67.09-.7.4.13.35.8.53c1 .3 1.41.61 1.33 1.45-.09 1-.81 1.3-1.78 1.21a11.33 11.33 0 0 1 -1.56-.34l.11-.79s1 .23 1.44.27.79-.07.82-.42-.1-.35-.73-.54c-.94-.28-1.49-.56-1.41-1.43a1.38 1.38 0 0 1 1.69-1.2 10.29 10.29 0 0 1 1.56.34zm1.43-.72 1 .12-.57 4.27-1-.13zm.21-1.61 1 .13-.13 1-1-.13zm1.45 6.12.7-4.21 1 .16v.21a3 3 0 0 1 1.14-.13c1.1.18 1.3 1 1.08 2.35l-.37 2.2-1-.16.36-2.19c.11-.72.1-1.26-.46-1.35a3.18 3.18 0 0 0 -.93.06l-.53 3.22zm7.97.34c0 .29.06.39.29.51l-.24.79a1.74 1.74 0 0 1 -1.06-.54 3.34 3.34 0 0 1 -1.29 0 1.29 1.29 0 0 1 -1-1.62c.18-.86.8-1.09 1.64-1l1 .13.06-.27a.47.47 0 0 0 -.37-.63c-.76-.17-1.64-.27-1.64-.27l.13-.8a16.34 16.34 0 0 1 1.75.2 1.24 1.24 0 0 1 1.08 1.71zm-1.68-1.1a.53.53 0 0 0 -.64.45c-.07.34.06.6.33.66a3.48 3.48 0 0 0 1 0l.21-1zm7.16-.66-1.13 4.12-.94-.26v-.21a3.13 3.13 0 0 1 -1.12 0c-1.05-.28-1.22-1-.83-2.43l.59-2.16.99.24-.59 2.15c-.23.85-.22 1.27.31 1.41a2.76 2.76 0 0 0 .91 0l.87-3.17z" fill="#9d1e3d"/></svg>