<svg xmlns="http://www.w3.org/2000/svg" viewBox="0 0 118.38 108"><path fill="#f68c22" d="M91.6 4.94L59.19.17 26.78 4.94 0 54.38l24.86 50.68 34.33 2.77 34.34-2.77 24.85-50.68L91.6 4.94z"/><path d="M59.19 12.45l24.62 3.63 20.9 38.57-19 38.85-26.52 2.14-26.47-2.14-19-38.85 20.9-38.57 24.62-3.63m0-12.28L26.78 4.94 0 54.38l24.86 50.68 34.33 2.77 34.34-2.77 24.85-50.68L91.6 4.94 59.19.17z" fill="#f9ce49"/><circle cx="67.35" cy="58" r="19.77" fill="none" stroke="#fff" stroke-linecap="round" stroke-linejoin="round" stroke-width="1.19"/><path d="M67 77.89l5 1.78 13.23 4.76s0-8.76-5.35-10.68M48.27 52.86c1.88-8.1-3.25-12.18-5.42-13.51a9.09 9.09 0 0 0-1.48-.7L39 37.79l-4.22 11.67c-2.62 7.31-.26 12.41 2.51 15.57a17.21 17.21 0 0 0 7.19 4.78l5.21 1.87 5.68 2M41.71 44.3l21.33-19.26" fill="none" stroke="#fff" stroke-linecap="round" stroke-linejoin="round" stroke-width="1.19"/><path d="M64.46 26.78a2.24 2.24 0 1 0-3.17-.16 2.25 2.25 0 0 0 3.17.16z" fill="#fff"/><path fill="none" stroke="#fff" stroke-linecap="round" stroke-linejoin="round" stroke-width="1.19" d="M43.3 39.35l5.71-11.98"/><path d="M51 28.43a2.24 2.24 0 1 0-3 1.06 2.25 2.25 0 0 0 3-1.06z" fill="#fff"/><path d="M37.17 51.67a8.42 8.42 0 0 0 1.43 8.92M81 43.86l-4.2 11.59-6.16 2.91-5.7-2" fill="none" stroke="#fff" stroke-linecap="round" stroke-linejoin="round" stroke-width="1.19"/><circle cx="65" cy="56.33" r="1.35" fill="#fff"/><path fill="none" stroke="#fff" stroke-linecap="round" stroke-linejoin="round" stroke-width="1.19" d="M86.73 55.83l-2.98-1.07-3.1 8.65"/><path d="M79.4 62.89a1.35 1.35 0 1 0 1.73-.81 1.35 1.35 0 0 0-1.73.81z" fill="#fff"/><path fill="none" stroke="#fff" stroke-linecap="round" stroke-linejoin="round" stroke-width="1.19" d="M66.73 38.74l-.84 2.33 5.29 1.9"/><circle cx="71.11" cy="42.94" r="1.35" fill="#fff"/><path fill="none" stroke="#fff" stroke-linecap="round" stroke-linejoin="round" stroke-width="1.19" d="M74.11 56.72l1.93 4.1-2.37 6.59 1.59 3.38"/><path d="M74 71.3a1.34 1.34 0 1 0 .64-1.79A1.35 1.35 0 0 0 74 71.3z" fill="#fff"/><path fill="none" stroke="#fff" stroke-linecap="round" stroke-linejoin="round" stroke-width="1.19" d="M48.45 52.66l7.46 2.68-1.39 3.89 5.18 1.86 3.29-9.14-3.93-8.33"/><path d="M60.31 43.11a1.35 1.35 0 1 0-.65 1.79 1.35 1.35 0 0 0 .65-1.79z" fill="#fff"/><path fill="none" stroke="#fff" stroke-linecap="round" stroke-linejoin="round" stroke-width="1.19" d="M60.86 47.44l-4.24 2"/><circle cx="56.68" cy="49.41" r="1.35" transform="rotate(-6.72 56.664 49.388)" fill="#fff"/><path fill="none" stroke="#fff" stroke-linecap="round" stroke-linejoin="round" stroke-width="1.19" d="M75.38 61.23l-9.61 4.53"/><path d="M65.26 64.51a1.34 1.34 0 1 0 1.79.64 1.34 1.34 0 0 0-1.79-.64z" fill="#fff"/><path fill="none" stroke="#fff" stroke-linecap="round" stroke-linejoin="round" stroke-width="1.19" d="M79.32 48.44l-4.11-1.48-1.54 4.28"/><path d="M72.42 50.73a1.34 1.34 0 0 0 .81 1.72 1.35 1.35 0 1 0-.81-1.72z" fill="#fff"/><path fill="none" stroke="#fff" stroke-linecap="round" stroke-linejoin="round" stroke-width="1.19" d="M68.43 77.74l-3.68-7.82-4.23-1.51.72-2.03-3.67-1.32"/><path d="M58.08 63.82a1.34 1.34 0 1 0 .82 1.72 1.35 1.35 0 0 0-.82-1.72z" fill="#fff"/><path fill="none" stroke="#fff" stroke-linecap="round" stroke-linejoin="round" stroke-width="1.19" d="M33.12 65.75l-14.38-5.16m26.5 23.28l-8.45-3.03m21.37.47l-24.21-8.69"/><path fill="none" stroke="#fff" stroke-linecap="round" stroke-linejoin="round" stroke-width=".9" d="M81.35 23.42l-4.05 4.05m3.92-.12l-3.8-3.81M24.54 45.41l-4.05 4.05m3.93-.12l-3.81-3.8m49.85 43.11l-4.05 4.05m3.92-.12l-3.8-3.8"/><path d="M42.49 6.91l.11.82s-.63 0-1 .09c-.76.13-1 .55-.8 1.44s.47 1.34 1.26 1.2c.32-.05.93-.22.93-.22l.16.82a8.77 8.77 0 0 1-1.24.33c-1.21.21-1.83-.44-2.09-2s.23-2.21 1.42-2.39a6.84 6.84 0 0 1 1.25-.09zm4.81 1.44c.17 1.29-.12 2.29-1.56 2.48s-2-.69-2.16-2 .14-2.25 1.58-2.44 1.98.7 2.14 1.96zm-1 .13c-.11-.8-.36-1.32-1-1.23s-.81.64-.71 1.46.33 1.38 1.07 1.28.77-.69.66-1.51zm5.58 1.61l-1 .09V10a2.52 2.52 0 0 1-1 .38c-1.17.11-1.66-.72-1.79-2.11S48.52 6 49.64 5.9a4.53 4.53 0 0 1 .88 0l-.16-1.78 1-.08zm-1.07-.9l-.21-2.42a5.35 5.35 0 0 0-.81 0c-.54 0-.78.55-.7 1.42s.32 1.35.87 1.3a2.49 2.49 0 0 0 .85-.3zM56.26 9l.05.73a7.6 7.6 0 0 1-1.61.27c-1.33.06-1.86-.67-1.93-2.09s.51-2.31 1.7-2.37 1.81.63 1.87 1.86v.7l-2.54.12c0 .56.29.95 1 .92S56.26 9 56.26 9zm-.88-1.59c0-.71-.28-1.07-.87-1s-.81.43-.78 1.12zm4.05 1.44H57v-.8l1.49-3.9h1.1l-1.47 3.77h1.31v-1.6h1v1.59H61v.93h-.57v1h-1zm6.02 1.03a13.69 13.69 0 0 1-1.64.11c-1.71-.07-2.11-1.13-2-3.13s.67-3 2.27-3a9.63 9.63 0 0 1 1.64.26l-.1.88s-1-.16-1.47-.18c-1 0-1.27.49-1.34 2.05S63 9 64 9c.4 0 1.44-.06 1.44-.06zM66.78 4l1 .07-.44 6-1-.07zm5.67 2.33L72 10.57l-1-.11v-.21a3.1 3.1 0 0 1-1.1.19c-1.09-.12-1.37-.81-1.21-2.28L69 6l1 .1-.3 2.16c-.1.89 0 1.29.52 1.35a2.79 2.79 0 0 0 .9-.13l.36-3.26zm1.44.2l1 .14-.62 4.18c-.16 1.14-.46 1.47-1.76 1.88l-.32-.87c.88-.33 1-.46 1.12-1.16zm.24-1.64l1 .15-.15 1L74 5.9z" fill="#f68c22"/></svg>