<svg viewBox="0 0 118.38 108" xmlns="http://www.w3.org/2000/svg"><path d="m91.55 4.5h-64.71l-26.74 49.35 24.81 50.6h68.56l24.81-50.6z" fill="#75c9f1"/><path d="m59.19 12.12 24.81 3.65 21.06 38.88-19.18 39.17-26.69 2.18-26.68-2.18-19.22-39.17 21.07-38.88 24.83-3.65m0-11.95-32.41 4.77-26.78 49.44 24.86 50.68 34.33 2.77 34.34-2.77 24.85-50.68-26.78-49.44-32.41-4.77z" fill="#f8e00f"/><path d="m90.52 55.52-4.05 4.04m3.92-.12-3.79-3.79m-54.83 15.8v-44.45h8.5v10.89h9.29v6.83h18.53v12.94" fill="none" stroke="#fff" stroke-linecap="round" stroke-linejoin="round" stroke-width="1.36"/><circle cx="82.32" cy="39.5" fill="none" r="4.79" stroke="#fff" stroke-linecap="round" stroke-linejoin="round" stroke-width="1.36"/><path d="m65.18 34.11s-3.64-1.45-4.94 1.31c0 0-1-4.5-2.76-4.21m-1.67-5.08s-3.63 1-2.62 4.65c0 0-2.32-3.49-5.08-2m41.4 48.19h-59.12m54.97 4.5h-9.22m-4.35.3h-5.67m-4.65 0h-4.35m-3.35 0c-1 .29-19.24 0-19.24 0m4.15 4.7h5.07m4.36-.29h5.66m4.65 0h4.36m3.34 0c1-.3 16.48 0 16.48 0m-30.64-9.21 12.02-12.02m12.26 12.02-24.98-24.98m26.74 18.01s-22.1 6.29-22.73-14m27.05-23.91v2.18m0 10.03v2.17m5.09-12.27-1.55 1.54m-7.08 7.09-1.54 1.54m12.27-5.09h-2.18m-10.02 0h-2.18m12.28 5.09-1.55-1.54m-7.08-7.09-1.54-1.54" fill="none" stroke="#fff" stroke-linecap="round" stroke-linejoin="round" stroke-width="1.36"/><g fill="#fff"><circle cx="78.03" cy="70" r="2.07"/><circle cx="34.53" cy="81.47" r="2.07"/><circle cx="68.09" cy="57.54" r="2.07"/><circle cx="31.91" cy="70.96" r="2.07"/><circle cx="82.6" cy="86.18" r="2.07"/><circle cx="48.43" cy="86.18" r="2.07"/></g><path d="m32.33 8.53.17.82s-.64.08-1 .16c-.75.19-.92.62-.71 1.51s.58 1.32 1.36 1.13c.32-.08.92-.29.92-.29l.23.81a9.06 9.06 0 0 1 -1.23.42c-1.21.3-1.89-.31-2.25-1.83s0-2.28 1.21-2.57a7.29 7.29 0 0 1 1.3-.16zm4.96 1.11c.26 1.28 0 2.32-1.4 2.62s-2.06-.56-2.33-1.86 0-2.29 1.42-2.58 2.02.55 2.31 1.82zm-1 .2c-.17-.8-.47-1.31-1.16-1.17s-.77.71-.6 1.53.43 1.37 1.16 1.22.78-.76.62-1.58zm5.76 1.23-1 .16v-.2a2.59 2.59 0 0 1 -1 .46c-1.17.19-1.73-.61-2-2s.26-2.31 1.39-2.5a6.21 6.21 0 0 1 .89 0l-.29-1.78 1-.16zm-1.15-.84-.39-2.43a4.61 4.61 0 0 0 -.82 0c-.54.09-.74.61-.6 1.49s.42 1.34 1 1.25a2.53 2.53 0 0 0 .81-.31zm5.49-.58.11.73a7.56 7.56 0 0 1 -1.61.41c-1.34.16-1.93-.54-2.11-2s.35-2.37 1.55-2.52 1.88.5 2 1.74v.71l-2.55.31c.08.57.37.94 1 .86s1.61-.24 1.61-.24zm-1-1.54c-.09-.72-.36-1.06-1-1s-.79.5-.71 1.19zm4.2 1.14-2.48.2-.06-.81 1.21-4.05 1.1-.09-1.17 3.91 1.32-.1-.13-1.61 1-.08.13 1.6h.58l.08.94h-.58l.08 1-1 .08zm6.15.57a14.37 14.37 0 0 1 -1.65.24c-1.74.07-2.22-1-2.3-3s.44-3.13 2.06-3.19a10.34 10.34 0 0 1 1.68.13v.9s-1.05-.08-1.5-.07c-1 0-1.25.6-1.19 2.19s.32 2.1 1.39 2.06c.4 0 1.45-.17 1.45-.17zm4.47-2.11c-.01 1.29-.43 2.29-1.91 2.29s-1.9-1-1.9-2.3.45-2.24 1.92-2.24 1.89.96 1.89 2.25zm-1 0c0-.82-.18-1.38-.89-1.38s-.9.53-.9 1.37.14 1.43.89 1.43.89-.59.89-1.42zm2.03 2.22.22-4.32h1v.22a2.94 2.94 0 0 1 1.12-.26c1.13.06 1.43.87 1.36 2.24l-.11 2.25h-1l.11-2.25c0-.73 0-1.27-.61-1.3a3 3 0 0 0 -.92.17l-.18 3.32zm8.09-2.84s-1-.24-1.49-.28-.69.09-.72.41.14.35.81.54c1 .3 1.43.61 1.34 1.47s-.82 1.31-1.8 1.21a10.63 10.63 0 0 1 -1.58-.35l.11-.8s1 .24 1.46.28.79-.07.83-.41-.1-.36-.74-.55c-1-.29-1.5-.58-1.42-1.46a1.4 1.4 0 0 1 1.72-1.21 10.3 10.3 0 0 1 1.58.35zm2.38.28-.25 1.79c-.08.59 0 .85.34.9l.65.06-.07.8a5 5 0 0 1 -.84 0c-.92-.12-1.23-.63-1.07-1.79l.26-1.9-.51-.07.12-.86.5.07.16-1.25 1 .14-.17 1.25 1.11.15-.12.86zm4.84 3.09a.44.44 0 0 0 .32.51l-.21.8a1.79 1.79 0 0 1 -1.1-.5 3.23 3.23 0 0 1 -1.29.08 1.3 1.3 0 0 1 -1.07-1.6c.16-.88.78-1.13 1.63-1.05l1 .1v-.28a.46.46 0 0 0 -.4-.62c-.76-.14-1.67-.21-1.67-.21l.11-.81a15.34 15.34 0 0 1 1.83.12 1.26 1.26 0 0 1 1.16 1.7zm-1.73-1a.53.53 0 0 0 -.63.48c-.06.34.08.61.36.65a3.16 3.16 0 0 0 1 0l.19-1zm2.83 2.42 1-4.22 1 .22v.21a3 3 0 0 1 1.04-.09c1.11.25 1.26 1.11 1 2.44l-.5 2.21-1-.22.51-2.2c.16-.72.18-1.27-.38-1.39a3 3 0 0 0 -.94 0l-.74 3.23zm6.57-1.94-.49 1.75c-.15.57-.1.84.22.93s.63.15.63.15l-.17.79a4.41 4.41 0 0 1 -.84-.11c-.89-.24-1.13-.79-.82-1.91l.51-1.86-.49-.13.23-.84.49.14.34-1.23 1 .27-.33 1.22 1.08.29-.23.84zm4.38 3.72c-.07.3 0 .41.25.55l-.32.77a1.76 1.76 0 0 1 -1-.65 3.17 3.17 0 0 1 -1.3-.09 1.31 1.31 0 0 1 -.83-1.73c.27-.85.92-1 1.75-.82l1 .23.08-.27a.47.47 0 0 0 -.33-.65c-.74-.24-1.63-.43-1.63-.43l.22-.79a14.25 14.25 0 0 1 1.74.37 1.26 1.26 0 0 1 .92 1.85zm-1.6-1.27a.54.54 0 0 0 -.7.4c-.1.33 0 .61.27.7a3.57 3.57 0 0 0 1 .13l.32-1z" fill="#78bde8"/></svg>