<svg viewBox="0 0 118.38 108" xmlns="http://www.w3.org/2000/svg"><path d="m91.6 4.94-32.41-4.77-32.41 4.77-26.78 49.44 24.86 50.68 34.33 2.77 34.34-2.77 24.85-50.68z" fill="#48b649"/><path d="m89.78 58.34-4.13 4.14m4-.13-3.87-3.88m-45.51 12.46-4.14 4.13m4.01-.13-3.88-3.87m41.24-44.07-4.13 4.13m4-.13-3.87-3.87m-18 36.26-28.5-20.05 6-8.47 30.9 21.4 12.32 16.46s3.2 2.48 5.77 4.75a6.87 6.87 0 0 1 -1 11.4c-3.93 2-7.3 1.63-10.52-2.1s-1-5.71-4.8-10.26-10.17-13.13-10.17-13.13zm-4.73-16.24-6.73-20.33 9.05-2.6m10.85 32.05-5.28-17.89" fill="none" stroke="#fff" stroke-linecap="round" stroke-linejoin="round" stroke-width="1.41"/><path d="m47.66 25.57-1.96-4.05-8.99 4.4 8.67 17.49" fill="none" stroke="#fff" stroke-linecap="round" stroke-linejoin="round" stroke-width="1.41"/><path d="m39.97 32.49-5.45-4.86-6.63 7.04 3.27 2.84m18.96-5.32 4.82 17.51m-1.46 6.42-8.29-9.11-11.37-4.15m26.5 26.9 8.76-5.92m-3.73 6.7 4.29 5.75m8.95 14.98-.18-1.41m1.77-.62.8 1.57m1.16-2.74 1.08 1.06m.16-2.44 1.31.51" fill="none" stroke="#fff" stroke-linecap="round" stroke-linejoin="round" stroke-width="1.41"/><g fill="#fff"><circle cx="54.32" cy="57.14" r="2.11"/><circle cx="49.95" cy="31.45" r="2.11"/><circle cx="53.68" cy="24.31" r="2.11"/><circle cx="58.55" cy="38.14" r="2.11"/><circle cx="32.37" cy="42.44" r="2.11"/></g><path d="m59.19 12.73 24.45 3.6 20.77 38.33-18.92 38.58-26.3 2.13-26.29-2.13-18.9-38.58 20.74-38.33zm0-12.56-32.41 4.77-26.78 49.44 24.86 50.68 34.33 2.77 34.34-2.77 24.85-50.68-26.78-49.44-32.41-4.77z" fill="#dce160"/><path d="m36.36 8.23.15.82s-.62.07-.94.14c-.75.17-.93.6-.73 1.49s.56 1.3 1.33 1.13c.32-.07.92-.27.92-.27l.21.8a8.48 8.48 0 0 1 -1.22.4c-1.2.28-1.86-.34-2.21-1.84s.06-2.26 1.24-2.53a7.16 7.16 0 0 1 1.25-.14zm4.87 1.18c.24 1.27 0 2.29-1.42 2.56s-2-.57-2.28-1.86 0-2.26 1.44-2.54 2.03.58 2.26 1.84zm-1 .18c-.15-.8-.44-1.3-1.12-1.17s-.78.69-.62 1.5.4 1.36 1.14 1.22.78-.74.62-1.55zm5.7 1.28-.93.13v-.19a2.7 2.7 0 0 1 -1 .44c-1.16.17-1.7-.62-1.91-2s.24-2.25 1.36-2.44a5.59 5.59 0 0 1 .88 0l-.27-1.81 1-.14zm-1.12-.87-.36-2.41a5.24 5.24 0 0 0 -.81 0c-.53.08-.74.59-.61 1.47s.4 1.32.95 1.24a2.72 2.72 0 0 0 .83-.3zm5.42-.47.1.72a7.64 7.64 0 0 1 -1.6.38c-1.32.14-1.9-.56-2-2s.37-2.35 1.56-2.47 1.84.52 2 1.74v.7l-2.53.28c.07.56.35.93 1 .86s1.47-.21 1.47-.21zm-.98-1.53c-.08-.71-.34-1-.93-1s-.78.49-.71 1.17zm4.14 1.16-2.45.17-.06-.8 1.24-4 1.1-.07-1.22 3.86 1.31-.09-.11-1.59 1-.07.11 1.59h.58l.06.93h-.57l.07 1-1 .07zm6.07.64a13.49 13.49 0 0 1 -1.63.22c-1.72 0-2.19-1-2.24-3s.47-3.02 2.08-3.11a10.34 10.34 0 0 1 1.65.15v.88s-1-.09-1.47-.08c-1 0-1.24.57-1.2 2.14s.26 2.08 1.35 2.05c.39 0 1.43-.15 1.43-.15zm.96-4.19h1v.45a3.19 3.19 0 0 1 1.25-.54v1a4.67 4.67 0 0 0 -1.25.4v2.93h-1zm6.22 3.3c0 .3.13.38.38.45l-.1.82a1.76 1.76 0 0 1 -1.14-.35 3.24 3.24 0 0 1 -1.27.24 1.29 1.29 0 0 1 -1.24-1.43c0-.88.61-1.22 1.46-1.24h1v-.31c0-.36-.15-.55-.47-.56h-1.67v-.8a14.44 14.44 0 0 1 1.75-.1c.92 0 1.4.46 1.36 1.51zm-1.83-.81a.53.53 0 0 0 -.56.56c0 .34.16.58.44.59a3.77 3.77 0 0 0 1-.12v-1zm3.37-2.2 1 .08-.35 4.27-1-.08zm.14-1.65 1 .07-.08 1-1-.08zm5.43 4.35c-.15 1.28-.68 2.19-2.12 2s-1.77-1.13-1.63-2.43.69-2.16 2.13-2 1.76 1.16 1.62 2.43zm-1-.12c.09-.81 0-1.37-.72-1.45s-1 .42-1 1.25 0 1.41.72 1.5.92-.48 1.01-1.3zm2.91-1.73.25 3.55h.18l1.36-3.3 1 .16-1.75 4-1.7-.16-.39-4.39zm6.15 4.31a.42.42 0 0 0 .3.51l-.23.79a1.72 1.72 0 0 1 -1.07-.53 3.24 3.24 0 0 1 -1.29 0 1.28 1.28 0 0 1 -1-1.61c.18-.87.8-1.1 1.64-1l1 .12.06-.27a.47.47 0 0 0 -.38-.63c-.75-.15-1.64-.25-1.64-.25l.13-.8a14.54 14.54 0 0 1 1.75.18 1.24 1.24 0 0 1 1.09 1.71zm-1.68-1.06a.54.54 0 0 0 -.64.47.49.49 0 0 0 .34.65 3.23 3.23 0 0 0 1 0l.21-1z" fill="#48b649"/></svg>