<svg xmlns="http://www.w3.org/2000/svg" width="175" height="142" fill="none" viewBox="0 0 175 142"><path fill="#00F" d="M61.76 15.58L44.49 18.12L13 74L44.49 129.88L61.76 132.42L28.24 74L61.76 15.58Z"/><path fill="#00F" d="M106.03 15.58L123.3 18.12L154.79 74L123.3 129.88L106.03 132.42L139.55 74L106.03 15.58Z"/><path fill="#F2F2FF" d="M61.76 15.58L83.9 13.04V74H28.24L61.76 15.58Z"/><path fill="#D9D9FF" d="M61.76 132.42L83.9 134.96V74H28.24L61.76 132.42Z"/><path fill="#B3B3FF" d="M106.03 132.42L83.9 134.96V74H139.55L106.03 132.42Z"/><path fill="#E6E6FF" d="M106.03 15.58L83.9 13.04V74H139.55L106.03 15.58Z"/></svg>