<svg xmlns="http://www.w3.org/2000/svg" viewBox="0 0 118.38 108"><path fill="#1b75bc" d="M91.6 4.94L59.19.17 26.78 4.94 0 54.38l24.86 50.68 34.33 2.77 34.34-2.77 24.85-50.68L91.6 4.94z"/><circle cx="61.54" cy="53.35" r=".69" fill="#fff"/><path d="M60.16 54.62a.68.68 0 0 0-1 0L46.93 67.09a.68.68 0 0 0 0 1 .68.68 0 0 0 1 0l12.24-12.5a.69.69 0 0 0-.01-.97z" fill="#fff"/><path d="M79.79 75.83a80.26 80.26 0 0 0-1.56-8.65l2.61-2.61a2.64 2.64 0 0 0-3.73-3.73l-.48.48c-.16-.5-.32-1-.49-1.49L78 58a2.64 2.64 0 0 0-3.73-3.73l-.24.24c-.3-.66-.61-1.31-.92-1.93l10.37-10.4A6 6 0 0 0 75 33.73L64.67 44.09c-.62-.31-1.26-.62-1.93-.92l.24-.24a2.64 2.64 0 0 0-3.73-3.73l-1.87 1.87-1.49-.49.48-.48a2.64 2.64 0 0 0-3.73-3.73L50 39a80.26 80.26 0 0 0-8.65-1.56h-.29l-4.53 4.53L57 51.83l-12.11 13a7.18 7.18 0 0 0-.84 1l-7-2.36-4.9 4.9 12.23 4.43 4.48 12.28 4.9-4.9-2.35-7a6.68 6.68 0 0 0 1-.83l13-12.13 9.91 20.41 4.53-4.53zm-4.14 2.71l-9.89-20.36-14.21 13.3a6.32 6.32 0 0 1-1.2.93l-.43.26 2.42 7.17-3 3-4-11-11-4 3-3 7.21 2.43.26-.43a6.12 6.12 0 0 1 .94-1.2L59 51.45l-20.33-9.88 2.87-2.88a81.18 81.18 0 0 1 8.54 1.58l.34.08 3.1-3.1a1.39 1.39 0 0 1 2 2l-1.94 2 1 .29c1 .29 1.89.59 2.79.91l.37.13 2.42-2.42a1.39 1.39 0 0 1 2 2l-1.53 1.53.84.36c1.09.47 2.13 1 3.1 1.46l.4.21 11-11a4.73 4.73 0 0 1 6.7 6.69l-11 11 .21.4c.5 1 1 2 1.46 3.1l.36.84 1.53-1.53a1.39 1.39 0 0 1 2 2l-2.52 2.28.13.37c.31.9.62 1.84.9 2.79l.3 1L78 61.71a1.4 1.4 0 0 1 2 2l-3.1 3.1.08.34a80.71 80.71 0 0 1 1.58 8.54l-2.88 2.87zM47.978 35.338l13.103-13.102.877.877-13.103 13.102zm6.885-1.839l11.441-11.441.877.877-11.44 11.44z" fill="#fff"/><path fill="#fff" d="M38.188 50.162l3.917-3.917.877.877-3.917 3.917zM60.841 75.78l6.916-6.915.876.877-6.915 6.915z"/><path d="M59.19 12.45l24.62 3.63 20.9 38.57-19 38.85-26.52 2.14-26.47-2.14-19-38.85 20.9-38.57 24.62-3.63m0-12.28L26.78 4.94 0 54.38l24.86 50.68 34.33 2.77 34.34-2.77 24.85-50.68L91.6 4.94 59.19.17z" fill="#75c9f1"/><path fill="none" stroke="#fff" stroke-linecap="round" stroke-linejoin="round" stroke-width=".9" d="M96.75 52.41l-4.05 4.05m3.92-.13l-3.8-3.8m-65.53 4.03l-4.05 4.05m3.93-.13l-3.8-3.8m17.02-34.76l-4.05 4.05m3.93-.13l-3.8-3.8"/><path fill="none" stroke="#75c9f1" stroke-linecap="round" stroke-linejoin="round" stroke-width="1.22" d="M40.59 73.98l-9.07 9.07M41 78.51l-9.07 9.07"/><path d="M35.44 8.72l.17.82s-.63.08-.94.15c-.75.18-.92.61-.71 1.49s.57 1.3 1.35 1.11c.31-.07.91-.28.91-.28l.22.8a8.85 8.85 0 0 1-1.21.42c-1.2.29-1.87-.32-2.23-1.81s0-2.25 1.2-2.54a7.06 7.06 0 0 1 1.24-.16zm4.89 1.11c.26 1.26 0 2.29-1.38 2.58s-2-.55-2.3-1.83 0-2.26 1.41-2.55 2.02.55 2.27 1.8zm-1 .2c-.16-.8-.46-1.3-1.13-1.16s-.77.7-.6 1.51.42 1.35 1.15 1.2.77-.75.61-1.58zm5.67 1.2l-1 .16v-.2a2.41 2.41 0 0 1-1 .45c-1.16.19-1.71-.59-1.93-2s.25-2.27 1.36-2.46a6.06 6.06 0 0 1 .88 0l-.28-1.75 1-.16zm-1.13-.82L43.51 8a4.49 4.49 0 0 0-.81 0c-.53.08-.73.6-.59 1.47s.41 1.32 1 1.23a2.63 2.63 0 0 0 .79-.29zm5.44-.57l.11.72a7.71 7.71 0 0 1-1.59.4c-1.32.16-1.9-.54-2.07-2s.34-2.34 1.52-2.48 1.85.5 2 1.72v.69l-2.52.31c.07.56.36.93 1 .85s1.55-.21 1.55-.21zm-1-1.53c-.09-.7-.36-1-.94-1s-.78.49-.7 1.17zm4.14 1.12l-2.45.2-.06-.8 1.19-4 1.09-.09-1.15 3.87 1.31-.11-.14-1.58 1-.09.13 1.59.63-.05v.93h-.57l.08 1-1 .09zm2.55.77l-.21-5.91 1.93-.07c1.86-.06 2.38.93 2.45 2.77s-.33 3.08-2.23 3.14zm1.76-5.06h-1L56 9.25h.94c1.11 0 1.28-1 1.23-2.18s-.29-1.96-1.39-1.93zm3.55.66h1v4.27h-1zm0-1.66h1v1h-1zM65.65 9c0 .3.13.38.38.44l-.09.82a1.73 1.73 0 0 1-1.14-.34 3.2 3.2 0 0 1-1.26.26 1.28 1.28 0 0 1-1.26-1.41c0-.88.6-1.22 1.45-1.25h1v-.31c0-.36-.15-.54-.48-.55h-1.66v-.78a15.11 15.11 0 0 1 1.75-.12c.92 0 1.41.44 1.37 1.49zm-1.84-.79a.53.53 0 0 0-.55.57c0 .34.16.58.45.59a3.72 3.72 0 0 0 1-.14v-1zm6.32-1.09s-1-.22-1.48-.26-.68.1-.71.42.15.34.81.52c1 .28 1.42.58 1.36 1.43s-.79 1.31-1.77 1.23a10.89 10.89 0 0 1-1.56-.32l.1-.79s1 .22 1.44.25.79-.08.81-.43-.1-.35-.74-.53c-.94-.27-1.49-.53-1.42-1.41A1.38 1.38 0 0 1 68.64 6a10.2 10.2 0 0 1 1.57.32zm1.51-.75l1 .12v.22a2.38 2.38 0 0 1 1-.19c1 .13 1.51.89 1.32 2.37-.21 1.7-.92 2.18-2.15 2a3.61 3.61 0 0 1-.73-.16l-.23 1.79-1-.12zm.84 1.13l-.3 2.4a3.31 3.31 0 0 0 .66.16c.73.09 1-.39 1.13-1.29s-.09-1.33-.63-1.4a2.2 2.2 0 0 0-.86.13zm6.93 2.18c-.22 1.27-.8 2.14-2.23 1.89S75.49 10.32 75.71 9s.81-2.08 2.29-1.83 1.63 1.25 1.41 2.51zm-1-.17c.14-.8 0-1.37-.63-1.49s-1 .36-1.11 1.18-.1 1.41.63 1.54.99-.42 1.13-1.23zm2.49-1.68l1 .21-.1.44a3.56 3.56 0 0 1 1.33-.28l-.22 1a4.83 4.83 0 0 0-1.3.14L81 12.21 80 12zm5.38 4.5a.43.43 0 0 0 .27.53l-.27.77a1.73 1.73 0 0 1-1-.58A3.18 3.18 0 0 1 84 13a1.29 1.29 0 0 1-1-1.63c.23-.85.85-1.06 1.69-.9l1 .17.07-.27a.46.46 0 0 0-.35-.64c-.74-.2-1.62-.34-1.62-.34l.21-.78a14 14 0 0 1 1.73.26 1.25 1.25 0 0 1 1 1.76zm-1.62-1.16a.52.52 0 0 0-.66.43c-.09.33 0 .6.3.67a3.58 3.58 0 0 0 1 .07l.26-1z" fill="#1b75bc"/></svg>