<svg viewBox="0 0 118.38 108" xmlns="http://www.w3.org/2000/svg"><path d="m91.6 4.94-32.41-4.77-32.41 4.77-26.78 49.44 24.86 50.68 34.33 2.77 34.34-2.77 24.85-50.68z" fill="#ef4323"/><path d="m59.19 12.45 24.62 3.63 20.9 38.57-19 38.85-26.52 2.14-26.47-2.14-19-38.85 20.9-38.57 24.62-3.63m0-12.28-32.46 4.77-26.78 49.44 24.86 50.68 34.33 2.77 34.34-2.77 24.85-50.68-26.78-49.44-32.41-4.77z" fill="#faa41e"/><g fill="none" stroke="#fff" stroke-linecap="round" stroke-linejoin="round"><path d="m35.46 74.23-4.05 4.05m3.93-.12-3.8-3.8m57.46-9.61-4.05 4.06m3.92-.13-3.8-3.8m-29.79-42.64-4.05 4.05m3.93-.13-3.8-3.8" stroke-width=".9"/><path d="m59.19 36.07h-6c-1.6 0-5.38.6-6.6 3.48s-7.12 19.45-7.12 19.45l6.53 8.29v6.58" stroke-width="1.31"/><path d="m55.23 74.41s-3.79-4.7-8.18-1.51-4.05 11.21-.61 14.24 9.89 0 12.75 0m-7.77-50.88s-17.1 0-21.35-9.14c0 0-2.88 17.64 13.72 19.89" stroke-width="1.31"/><circle cx="50.69" cy="80.33" r="1.73" stroke-width="1.31"/><ellipse cx="50.69" cy="58.33" rx="1.54" ry="2.93" stroke-width="1.31" transform="matrix(.8660254 -.5 .5 .8660254 -22.38023 33.159846)"/><path d="m59.19 36.07h6c1.59 0 5.38.6 6.59 3.48s7.14 19.45 7.14 19.45l-6.52 8.29v6.58" stroke-width="1.31"/><path d="m63.15 74.41s3.79-4.7 8.19-1.51 4.09 11.21.6 14.24-9.88 0-12.75 0m7.81-50.88s17.1 0 21.34-9.14c0 0 2.88 17.64-13.71 19.89" stroke-width="1.31"/><path d="m76.72 52.86s7.73-.21 11.78 2.14c0 0 0-8.65-5.41-11.44" stroke-width="1.31"/><circle cx="67.69" cy="80.33" r="1.73" stroke-width="1.31"/><ellipse cx="67.69" cy="58.33" rx="2.93" ry="1.54" stroke-width="1.31" transform="matrix(.5 -.87 .87 .5 -16.67 87.79)"/><path d="m41.66 52.86s-7.73-.21-11.78 2.14c0 0 0-8.65 5.42-11.44m22.11 9.67h4.26m-6.83-7.98h9.41" stroke-width="1.31"/></g><path d="m43.53 7.17.1.82s-.63 0-1 .09c-.76.13-1 .55-.8 1.44s.48 1.34 1.26 1.2c.32-.05.93-.21.93-.21l.16.81a8.77 8.77 0 0 1 -1.24.33c-1.21.21-1.83-.44-2.09-2s.18-2.24 1.37-2.45a6.94 6.94 0 0 1 1.31-.03zm4.81 1.45c.16 1.28-.13 2.28-1.57 2.47s-2-.69-2.16-2 .15-2.25 1.58-2.44 1.98.7 2.15 1.97zm-1 .12c-.1-.8-.36-1.32-1.05-1.23s-.81.64-.7 1.47.32 1.37 1.06 1.27.81-.69.7-1.51zm5.57 1.61-1 .09v-.2a2.52 2.52 0 0 1 -1 .38c-1.16.11-1.66-.72-1.78-2.1s.41-2.25 1.54-2.36a4.65 4.65 0 0 1 .88 0l-.15-1.73 1-.09zm-1.06-.9-.22-2.45a5.28 5.28 0 0 0 -.81 0c-.54 0-.77.55-.69 1.43s.31 1.34.87 1.29a2.59 2.59 0 0 0 .85-.27zm5.44-.18.05.73a7.6 7.6 0 0 1 -1.61.28c-1.33.07-1.86-.67-1.93-2.09s.52-2.31 1.7-2.37 1.82.63 1.87 1.86v.7l-2.57.12c0 .57.3 1 1 .92s1.49-.15 1.49-.15zm-.88-1.59c0-.71-.28-1.07-.87-1s-.81.43-.78 1.12zm4.05 1.43h-2.46v-.8l1.5-3.9h1.09l-1.44 3.77h1.31v-1.59h1v1.58h.54v.93h-.58v1h-1zm2.62-4.93h1l-.16 5.91h-1zm5.31 5.01c0 .3.12.38.37.46l-.11.81a1.75 1.75 0 0 1 -1.14-.37 3.11 3.11 0 0 1 -1.26.23 1.29 1.29 0 0 1 -1.25-1.45c0-.88.63-1.21 1.48-1.21h1v-.3c0-.36-.14-.55-.46-.57h-1.66v-.79a16.25 16.25 0 0 1 1.76-.08c.91.06 1.39.48 1.33 1.53zm-1.82-.84a.52.52 0 0 0 -.57.55c0 .34.14.59.42.6a3.51 3.51 0 0 0 1-.11l.06-1zm6.32-.94s-1-.24-1.47-.29-.68.08-.71.4.13.35.79.54c1 .3 1.4.62 1.32 1.46-.11 1-.83 1.29-1.8 1.18a10.07 10.07 0 0 1 -1.55-.36l.12-.79s1 .25 1.43.29.79-.06.82-.4-.09-.35-.72-.55c-.93-.29-1.48-.58-1.38-1.45a1.38 1.38 0 0 1 1.7-1.18 10.73 10.73 0 0 1 1.56.36zm1.41-.7 1 .13-.6 4.23-1-.14zm.23-1.64 1 .13-.14 1-1-.14z" fill="#ef4323"/></svg>