<svg viewBox="0 0 118.38 108" xmlns="http://www.w3.org/2000/svg"><path d="m91.55 4.99h-64.71l-26.74 49.35 24.81 50.59h68.56l24.81-50.59z" fill="#2c2e72"/><g fill="none" stroke="#fff" stroke-linecap="round" stroke-linejoin="round"><path d="m94.35 43.48-4.05 4.05m3.92-.13-3.79-3.79m-49.14-22.91-4.05 4.04m3.92-.12-3.79-3.8m14.51 63.07-4.04 4.04m3.92-.12-3.8-3.8" stroke-width="1.36"/><path d="m44.67 53.51h29.49v15.81h-29.49zm36.68 19.66s.31 5-2.73 5h-39s-2.33-.11-2.33-5.07z" stroke-width="1.24"/><path d="m77.81 73.07v-23.11h-36.89v23.11m28.27-23.11v-11.25h16.62m.2-1.82h3.04v3.04h-3.04zm-18.11-15.46h3.04v3.04h-3.04zm-10.06 8.16h3.04v3.04h-3.04zm25.89 20.99h3.04v3.04h-3.04zm-17.35 34.31h3.04v3.04h-3.04zm27.12-26.85h3.04v3.04h-3.04zm-7.23 17.25h3.04v3.04h-3.04zm-8.47-15.9h15.7m-15.69 9.93h9.72v5.97m-28.17-25.33v-17.33" stroke-width="1.24"/><rect height="7.7" rx="2.04" stroke-width="1.24" width="9.92" x="54.41" y="59.18"/><path d="m61.85 59.18s0-3.64-2.49-3.64-2.47 3.64-2.47 3.64" stroke-width="1.24"/><circle cx="59.41" cy="63.44" r="1.17" stroke-width="1.24"/><path d="m49.19 49.96v-11.25h-16.62m-.2 1.22h-3.04v-3.04h3.04zm11.96-5.15h-3.04v-3.04h3.04zm-9.67 18.84h-3.04v-3.04h3.04zm-9.78 7.47h-3.04v-3.04h3.04zm7.23 17.24h-3.04v-3.04h3.04zm8.47-18.94h-15.69m15.69 9.93h-9.73v5.97" stroke-width="1.24"/></g><path d="m59.19 12.27 24.74 3.64 21 38.74-19.13 39-26.61 2.17-26.58-2.15-19.14-39 21-38.74 24.73-3.64m0-12.1-32.42 4.75-26.78 49.44 24.86 50.68 34.33 2.77 34.34-2.77 24.85-50.68-26.78-49.44-32.41-4.77z" fill="#b0ddf6"/><path d="m32.33 8.53.17.82s-.64.08-1 .16c-.75.18-.92.62-.71 1.51s.58 1.32 1.36 1.13c.32-.08.92-.29.92-.29l.23.81a9.06 9.06 0 0 1 -1.23.42c-1.21.3-1.89-.32-2.26-1.83s0-2.28 1.22-2.57a7.29 7.29 0 0 1 1.3-.16zm4.96 1.11c.26 1.28 0 2.32-1.4 2.62s-2.06-.56-2.33-1.86 0-2.29 1.42-2.58 2.02.55 2.31 1.82zm-1 .2c-.16-.8-.46-1.31-1.15-1.17s-.77.71-.6 1.53.43 1.37 1.16 1.22.77-.76.6-1.58zm5.76 1.23-1 .16v-.2a2.59 2.59 0 0 1 -1 .46c-1.17.19-1.73-.61-2-2s.26-2.31 1.39-2.5a6.19 6.19 0 0 1 .89 0l-.29-1.78 1-.16zm-1.15-.84-.39-2.43a4.61 4.61 0 0 0 -.82 0c-.54.09-.75.61-.6 1.49s.42 1.34 1 1.25a2.53 2.53 0 0 0 .81-.31zm5.49-.58.11.73a7.56 7.56 0 0 1 -1.61.41c-1.34.16-1.93-.54-2.11-2s.35-2.38 1.55-2.52 1.88.5 2 1.74v.71l-2.55.31c.08.57.37.94 1 .86s1.61-.24 1.61-.24zm-1-1.54c-.09-.72-.36-1.06-1-1s-.79.5-.71 1.19zm4.2 1.14-2.48.2-.06-.81 1.21-4.05 1.1-.09-1.17 3.91 1.32-.1-.13-1.61 1-.08.13 1.6h.58l.08.94h-.58l.08 1-1 .08zm4.58-1.37h-1.06l.08 2.12h-1l-.19-6h2.13c1.31 0 2 .51 2.09 1.86a1.76 1.76 0 0 1 -.87 1.77l1 2.29h-1.12l-.89-2.06zm0-3-1.17.05.08 2.07h1.17a.94.94 0 0 0 .93-1.09.92.92 0 0 0 -1.02-1.02zm3.27 4.97.1-4.33h1v.23a3.06 3.06 0 0 1 1.06-.31 1.49 1.49 0 0 1 1.05.41 6.07 6.07 0 0 1 1.51-.35c1.11 0 1.46.78 1.42 2.21l-.08 2.29h-1v-2.22c0-.8 0-1.31-.64-1.32a2.75 2.75 0 0 0 -.94.22 6 6 0 0 1 0 1l.08 2.26h-1v-2.23c0-.83-.12-1.3-.69-1.31a2.53 2.53 0 0 0 -.85.2l-.08 3.3zm12.1-5.34-2 5.85-1.9-.17-.89-6.1 1.06.09.69 5.16h.35l1.59-5zm3.63 5.35c0 .31.09.4.33.5l-.17.81a1.73 1.73 0 0 1 -1.12-.46 3.2 3.2 0 0 1 -1.3.13 1.31 1.31 0 0 1 -1.12-1.56c.12-.88.73-1.17 1.59-1.11l1 .05v-.27c0-.36-.09-.57-.42-.61-.77-.11-1.68-.15-1.68-.15l.08-.81a16.79 16.79 0 0 1 1.78.06 1.26 1.26 0 0 1 1.22 1.65zm-1.78-1a.54.54 0 0 0 -.61.51c0 .35.1.6.38.64a3.28 3.28 0 0 0 1 0l.14-1zm3.97-3.63 1 .18-1.06 6-1-.17zm4.73 2.77-.21.82s-.6-.2-.93-.27c-.76-.16-1.1.16-1.29 1.06s0 1.44.74 1.6c.33.07 1 .14 1 .14l-.15.83a8.12 8.12 0 0 1 -1.29-.15c-1.22-.25-1.57-1.1-1.24-2.63s1-2 2.2-1.79a7.08 7.08 0 0 1 1.17.39zm3.33 4.41-.17.71a7.74 7.74 0 0 1 -1.64-.2c-1.3-.34-1.6-1.21-1.24-2.6s1.18-2.08 2.35-1.79a1.71 1.71 0 0 1 1.28 2.37l-.25.66-2.49-.64a.86.86 0 0 0 .66 1.18c.57.15 1.5.31 1.5.31zm-.42-1.81c.18-.69 0-1.11-.53-1.26s-.91.18-1.09.85zm4.68 2.76a.42.42 0 0 0 .25.54l-.31.78a1.76 1.76 0 0 1 -1-.64 3.17 3.17 0 0 1 -1.32-.04 1.29 1.29 0 0 1 -.85-1.71c.26-.86.91-1 1.75-.84l1 .22.08-.26c.11-.35 0-.58-.32-.67-.74-.24-1.63-.42-1.63-.42l.21-.79a14.78 14.78 0 0 1 1.74.35 1.26 1.26 0 0 1 .94 1.83zm-1.59-1.25a.51.51 0 0 0 -.68.4c-.11.33 0 .61.27.69a3.37 3.37 0 0 0 1 .12l.31-1z" fill="#2c2e72"/></svg>