<svg viewBox="0 0 118.38 108" xmlns="http://www.w3.org/2000/svg"><path d="m91.6 4.94-32.41-4.77-32.41 4.77-26.78 49.44 24.86 50.68 34.33 2.77 34.34-2.77 24.85-50.68z" fill="#8b4e21"/><path d="m59.19 12.45 24.62 3.63 20.9 38.57-19 38.85-26.52 2.14-26.47-2.14-19-38.85 20.9-38.57 24.62-3.63m0-12.28-32.46 4.77-26.78 49.44 24.86 50.68 34.33 2.77 34.34-2.77 24.85-50.68-26.78-49.44-32.41-4.77z" fill="#d06828"/><g fill="none" stroke="#fff" stroke-linecap="round" stroke-linejoin="round"><path d="m25.47 53.2-4.05 4.06m3.92-.13-3.8-3.8m71.02-18.14-4.05 4.05m3.92-.13-3.8-3.8m2.03 37.65-4.05 4.05m3.92-.13-3.8-3.8" stroke-width=".9"/><path d="m38.07 60.32h41.77v26.01h-41.77zm33.87-33.16h4.47l5.15 33.15h-45.21l5.15-33.15h24.67m1.34 33.16v26m0-8.57h-29.44m41.77 4.96h-12.33m-25.3-13.11 4.65 4.65m-4.65-9.79 10.14 10.14" stroke-width="1.19"/><path d="m76.53 53.75h-14.43s6.9-7.57 14.43 0zm-20.72 0h-14.43s6.86-7.57 14.43 0zm10.36-9.24h-14.43s6.86-7.57 14.43 0zm0-22.39h5.76v12.48h-5.76z" stroke-width="1.19"/></g><circle cx="58.96" cy="42.83" fill="#fff" r="1.68"/><circle cx="69.32" cy="52.07" fill="#fff" r="1.68"/><circle cx="48.96" cy="52.07" fill="#fff" r="1.68"/><path d="m79.84 86.32h8.79m-50.56 0h-8.63m57.17 4.43h-54.02" fill="none" stroke="#fff" stroke-linecap="round" stroke-linejoin="round" stroke-width="1.19"/><circle cx="70.85" cy="19.11" fill="#fff" r=".66"/><circle cx="67.34" cy="17.34" fill="#fff" r=".66"/><path d="m42.65 7.14.1.83s-.63 0-1 .09c-.76.13-.95.54-.8 1.44s.48 1.33 1.26 1.2c.32-.06.93-.22.93-.22l.16.82a8.88 8.88 0 0 1 -1.23.33c-1.22.2-1.84-.45-2.1-2s.18-2.24 1.37-2.44a7.46 7.46 0 0 1 1.31-.05zm4.81 1.45c.16 1.28-.13 2.29-1.57 2.48s-2-.69-2.16-2 .15-2.26 1.58-2.44 1.98.7 2.15 1.96zm-1 .13c-.1-.81-.36-1.32-1-1.24s-.81.65-.7 1.47.32 1.37 1.06 1.28.76-.7.65-1.51zm5.54 1.6-1 .09v-.19a2.69 2.69 0 0 1 -1 .38c-1.16.1-1.66-.72-1.78-2.11s.41-2.25 1.54-2.35a6.18 6.18 0 0 1 .88 0l-.12-1.74 1-.09zm-1-.9-.25-2.42a3.87 3.87 0 0 0 -.81 0c-.53 0-.77.55-.69 1.43s.31 1.35.87 1.3a2.76 2.76 0 0 0 .88-.31zm5.41-.17.05.72a7.27 7.27 0 0 1 -1.61.29c-1.33.06-1.86-.68-1.93-2.09s.51-2.32 1.7-2.37 1.81.63 1.87 1.86v.7l-2.54.12c0 .56.29.95 1 .92s1.46-.15 1.46-.15zm-.88-1.6c0-.71-.28-1.06-.87-1s-.81.43-.78 1.11zm4.05 1.44h-2.45v-.8l1.5-3.89h1.09l-1.45 3.76h1.31v-1.6h1v1.59h.57v.94h-.58v1h-1zm6.12-3.86s-1.16-.17-1.7-.23-1 .19-1 .69.28.69 1.2 1c1.18.46 1.61.74 1.57 1.73 0 1.24-.67 1.77-2 1.72a13.46 13.46 0 0 1 -1.8-.26l.03-.78s1.12.17 1.66.19 1.07-.17 1.1-.8c0-.43-.29-.61-1.15-.92-1.22-.47-1.61-.87-1.61-1.87s.77-1.64 2-1.59a10.75 10.75 0 0 1 1.75.26zm1.1.77 1 .07-.31 4.26-1-.07zm.12-1.65 1 .07-.08 1-1-.07zm5.59 4.29c-.17 1.58-.84 2.2-2.28 2-.45 0-1.52-.27-1.52-.27l.64-6 1 .1-.2 1.88a3.06 3.06 0 0 1 1-.11c1.06.17 1.51 1 1.36 2.4zm-1-.11c.09-.81-.11-1.32-.62-1.37a3.11 3.11 0 0 0 -.87 0l-.27 2.54.55.1c.88.13 1.14-.45 1.22-1.27zm2.33-1.79 1 .14-.61 4.22-1-.14zm.24-1.64 1 .14-.15 1-1-.14zm5.46 2.6-.77 4.2-1-.18v-.21a3.15 3.15 0 0 1 -1.11.11c-1.08-.2-1.31-.9-1-2.35l.4-2.2 1 .18-.4 2.18c-.16.88-.12 1.29.42 1.39a3.05 3.05 0 0 0 .91-.06l.59-3.23z" fill="#694f23"/></svg>