<svg viewBox="0 0 118.38 108" xmlns="http://www.w3.org/2000/svg"><path d="m91.64 4.99h-64.7l-26.74 49.35 24.82 50.59h68.55l24.81-50.59z" fill="#ef4138"/><path d="m87.41 28.6-4.04 4.04m3.92-.12-3.8-3.8m.63 55.49-4.04 4.04m3.92-.12-3.8-3.8m-54.11-30.83-4.05 4.05m3.92-.13-3.79-3.79" fill="none" stroke="#fff" stroke-linecap="round" stroke-linejoin="round" stroke-width="1.36"/><path d="m41.16 40.86c-8.13 17.49 1 40.9 18.15 40.9 17.1 0 26.3-23.42 18.14-40.9s-19.19-16.3-19.19-16.3-9.09-.92-17.1 16.3z" fill="none" stroke="#fff" stroke-linecap="round" stroke-linejoin="round" stroke-width="1.24"/><path d="m42.6 37.98 5.96-3.83 5.14 3.83m0 0 5.97-3.83 5.14 3.83m0 0 5.97-3.83 5.13 3.83" fill="none" stroke="#fff" stroke-linecap="round" stroke-linejoin="round" stroke-width="1.18"/><path d="m40.33 66.42 6.78-4.53 5.84 4.53m0 0 6.78-4.53 5.84 4.53" fill="none" stroke="#fff" stroke-linecap="round" stroke-linejoin="round" stroke-width="1.21"/><path d="m65.57 66.42 6.78-4.53 5.84 4.53" fill="none" stroke="#fff" stroke-linecap="round" stroke-linejoin="round" stroke-width="1.21"/><g fill="#fff"><ellipse cx="65.57" cy="65.24" rx="2.41" ry="2.51"/><ellipse cx="52.8" cy="65.24" rx="2.41" ry="2.51"/><circle cx="59.67" cy="34.51" r="2.51"/><circle cx="59.67" cy="68.93" r="1.47"/><circle cx="59.67" cy="77.99" r="1.47"/><circle cx="59.67" cy="28.32" r="1.47"/></g><path d="m76.74 70.12s-14.74 7.94-34.42.25" fill="none" stroke="#fff" stroke-linecap="round" stroke-linejoin="round" stroke-width="1.24"/><path d="m80.2 54.56h-2.77" fill="none" stroke="#fff" stroke-linecap="round" stroke-linejoin="round" stroke-width="1.22"/><path d="m72.24 54.56h-28.56" style="fill:none;stroke-dasharray:5.19 5.19;stroke-linecap:round;stroke-linejoin:round;stroke-width:1.22;stroke:#fff"/><path d="m41.08 54.56h-2.77" fill="none" stroke="#fff" stroke-linecap="round" stroke-linejoin="round" stroke-width="1.22"/><path d="m59.67 42.56 1.07 1.96 1.95 1.07-1.95 1.06-1.07 1.96-1.07-1.96-1.95-1.06 1.95-1.07zm8.31 0 1.07 1.96 1.95 1.07-1.95 1.06-1.07 1.96-1.07-1.96-1.96-1.06 1.96-1.07zm7.75 0 1.07 1.96 1.96 1.07-1.96 1.06-1.07 1.96-1.06-1.96-1.96-1.06 1.96-1.07zm-24.37 0 1.07 1.96 1.95 1.07-1.95 1.06-1.07 1.96-1.07-1.96-1.95-1.06 1.95-1.07zm-8.31 0 1.07 1.96 1.95 1.07-1.95 1.06-1.07 1.96-1.07-1.96-1.96-1.06 1.96-1.07z" fill="#fff"/><path d="m59.19 12.27 24.74 3.64 21 38.74-19.13 39-26.61 2.17-26.58-2.15-19.14-39 21-38.74 24.73-3.64m0-12.1-32.42 4.75-26.78 49.44 24.86 50.68 34.33 2.77 34.34-2.77 24.85-50.68-26.78-49.44-32.41-4.77z" fill="#a71f24"/><path d="m34.89 8.51.17.82s-.63.08-1 .16c-.76.18-.93.62-.72 1.51s.58 1.32 1.36 1.13c.32-.08.92-.29.92-.29l.22.81a8.68 8.68 0 0 1 -1.22.42c-1.22.3-1.89-.32-2.26-1.83s0-2.28 1.22-2.57a7.29 7.29 0 0 1 1.31-.16zm4.97 1.12c.26 1.28 0 2.32-1.41 2.61s-2.06-.56-2.32-1.86 0-2.29 1.42-2.58 2.05.56 2.31 1.83zm-1 .2c-.16-.81-.46-1.32-1.15-1.18s-.77.71-.61 1.53.43 1.37 1.17 1.22.73-.76.6-1.57zm5.76 1.22-1 .16v-.2a2.59 2.59 0 0 1 -1 .46c-1.17.19-1.73-.61-1.95-2s.25-2.31 1.38-2.5a6.21 6.21 0 0 1 .89 0l-.28-1.78 1-.16zm-1.15-.84-.39-2.43a4.64 4.64 0 0 0 -.82 0c-.54.09-.74.61-.6 1.49s.42 1.34 1 1.25a2.53 2.53 0 0 0 .81-.31zm5.47-.57.11.73a7.36 7.36 0 0 1 -1.61.41c-1.33.16-1.93-.55-2.1-2s.35-2.38 1.54-2.52 1.88.5 2 1.74v.7l-2.56.32c.08.56.37.94 1 .86s1.62-.24 1.62-.24zm-1-1.54c-.08-.72-.35-1.06-1-1s-.78.5-.71 1.19zm4.21 1.14-2.48.2-.06-.81 1.21-4.05 1.1-.09-1.17 3.91 1.32-.1-.13-1.61 1-.08.13 1.6h.58l.08.94h-.58l.08 1-1 .08zm5.85-4.38s-1.19-.08-1.7-.06-1 .28-1 .78.33.68 1.3 1c1.23.37 1.68.62 1.72 1.62 0 1.26-.54 1.85-1.93 1.9a12.39 12.39 0 0 1 -1.84-.12v-.88s1.15.09 1.69.07 1.08-.26 1.05-.89c0-.45-.34-.6-1.23-.85-1.29-.37-1.75-.75-1.78-1.76s.64-1.72 1.9-1.77a10.89 10.89 0 0 1 1.82.1zm4.81.72v4.33h-1v-.23a3.22 3.22 0 0 1 -1.1.31c-1.11 0-1.46-.67-1.45-2.17v-2.26h1v2.26c0 .9.11 1.3.67 1.3a3 3 0 0 0 .89-.22v-3.33zm4.19.23v.83s-.63-.1-1-.11c-.78 0-1.06.33-1.11 1.24s.18 1.43 1 1.46h1v.84a8.47 8.47 0 0 1 -1.29.06c-1.25-.06-1.72-.84-1.64-2.4s.67-2.18 1.89-2.11a7.19 7.19 0 0 1 1.15.19zm4 3.78v.74a8 8 0 0 1 -1.66.06c-1.34-.12-1.79-.94-1.66-2.39s.84-2.25 2-2.14 1.73.88 1.62 2.13l-.13.69-2.57-.23c0 .57.16 1 .84 1.06s1.56.08 1.56.08zm-.66-1.72c.06-.72-.13-1.11-.72-1.16s-.88.32-1 1zm5.06 1.96a.42.42 0 0 0 .34.49l-.18.82a1.86 1.86 0 0 1 -1.12-.46 3.17 3.17 0 0 1 -1.29.13 1.3 1.3 0 0 1 -1.15-1.56c.12-.88.73-1.17 1.59-1.11h1v-.27c0-.36-.09-.57-.42-.61-.77-.11-1.68-.14-1.68-.14l.08-.82a16.57 16.57 0 0 1 1.77.06 1.26 1.26 0 0 1 1.23 1.65zm-1.77-1a.54.54 0 0 0 -.62.51c0 .35.11.6.39.64a3.63 3.63 0 0 0 1 0l.15-1zm4.19-1.78.16 3.6h.19l1.46-3.3 1 .18-1.87 4.06-1.65-.31-.3-4.45zm6.11 4.5a.42.42 0 0 0 .29.52l-.25.8a1.8 1.8 0 0 1 -1.07-.56 3.18 3.18 0 0 1 -1.3 0 1.3 1.3 0 0 1 -1-1.65c.21-.87.84-1.1 1.69-1l1 .14.07-.27a.47.47 0 0 0 -.36-.59c-.76-.18-1.66-.3-1.66-.3l.16-.8a16 16 0 0 1 1.76.22 1.27 1.27 0 0 1 1.07 1.76zm-1.67-1.13a.53.53 0 0 0 -.66.45.51.51 0 0 0 .32.67 3.76 3.76 0 0 0 1 .05l.24-1z" fill="#fff"/></svg>