<svg xmlns="http://www.w3.org/2000/svg" viewBox="0 0 118.38 108"><path fill="#a97c51" d="M91.55 4.5H26.84L.1 53.85l24.81 50.6h68.56l24.81-50.6L91.55 4.5z"/><path fill="none" stroke="#fff" stroke-linecap="round" stroke-linejoin="round" stroke-width="1.36" d="M61.78 24.17l-4.05 4.05m3.92-.13l-3.79-3.79M87.9 34.52l-4.04 4.05m3.92-.13l-3.8-3.79M27.57 46.36l-4.05 4.05m3.92-.13l-3.79-3.79m5.46 27.87l62.21-.35M53.76 61.34l-6.92-27.49-6.82 27.13"/><path fill="#fff" d="M58.27 65.32l-3.39-13.46-3.39 13.46h6.78zm-16.07 0l-3.39-13.46-3.39 13.46h6.78z"/><path fill="none" stroke="#fff" stroke-linecap="round" stroke-linejoin="round" stroke-width="1.36" d="M49.87 73.62l-3.03-39.77-3.02 39.77m13.03 0v15.63M36.83 73.62v15.63m0-25.57h3.95v9.94h-3.95zm16.07 0h3.95v9.94H52.9z"/><circle cx="41.26" cy="78.25" r="2.31" fill="#fff"/><path d="M45.45 89a.76.76 0 0 1-.75-.75V85.9a3.42 3.42 0 0 1 1.81-2.9.64.64 0 0 1 .33-.08.66.66 0 0 1 .34.08A3.42 3.42 0 0 1 49 85.9v2.38a.76.76 0 0 1-.75.75zm9.43-20.76a.73.73 0 0 0-.73.73v2h1.45V69a.73.73 0 0 0-.72-.76zm-16.07 0a.73.73 0 0 0-.72.73v2h1.44V69a.73.73 0 0 0-.72-.76z" fill="#fff"/><circle cx="46.84" cy="25.64" r=".83" fill="none" stroke="#fff" stroke-linecap="round" stroke-linejoin="round" stroke-width="1.36"/><ellipse cx="46.84" cy="33.28" rx="1.3" ry=".4" fill="none" stroke="#fff" stroke-linecap="round" stroke-linejoin="round" stroke-width="1.36"/><path fill="none" stroke="#fff" stroke-linecap="round" stroke-linejoin="round" stroke-width="1.36" d="M46.84 32.88V21.91m10.09 37.75L74.6 41.99l17.94 17.93"/><path d="M73.38 56.63a.76.76 0 0 1-.75-.75V53.5a3.43 3.43 0 0 1 1.8-2.94.81.81 0 0 1 .34-.08.77.77 0 0 1 .34.08 3.42 3.42 0 0 1 1.81 2.94v2.38a.76.76 0 0 1-.75.75zm0 32.37a.76.76 0 0 1-.75-.75V85.9a3.43 3.43 0 0 1 1.8-2.9.68.68 0 0 1 .34-.08.66.66 0 0 1 .34.08 3.42 3.42 0 0 1 1.81 2.94v2.38a.76.76 0 0 1-.75.75zm-8.11-20.18a.75.75 0 0 1-.75-.75v-2.38a3.43 3.43 0 0 1 1.8-2.94.76.76 0 0 1 .68 0 3.44 3.44 0 0 1 1.81 2.94v2.38a.76.76 0 0 1-.76.75zm16.9-1.39a.75.75 0 0 1-.75-.75v-2.37a3.4 3.4 0 0 1 1.81-2.94.64.64 0 0 1 .33-.08.66.66 0 0 1 .34.08 3.4 3.4 0 0 1 1.81 2.94v2.37a.75.75 0 0 1-.75.75z" fill="#fff"/><circle cx="92.54" cy="59.92" r="2.07" fill="#fff"/><circle cx="29.43" cy="74.36" r="2.07" fill="#fff"/><circle cx="91.19" cy="73.78" r="2.07" fill="#fff"/><path d="M59.19 12.27l24.74 3.64 21 38.74-19.14 39-26.6 2.17-26.58-2.15-19.14-39 21-38.74 24.73-3.64m0-12.1L26.78 4.94 0 54.38l24.86 50.68 34.33 2.77 34.34-2.77 24.85-50.68L91.6 4.94 59.19.17z" fill="#d39a6b"/><path d="M34.79 8.53l.17.82s-.63.08-1 .16c-.76.19-.93.62-.72 1.51s.58 1.32 1.37 1.13c.32-.08.92-.29.92-.29l.22.81a9.06 9.06 0 0 1-1.23.42c-1.21.3-1.88-.31-2.25-1.83s0-2.28 1.21-2.57a7.29 7.29 0 0 1 1.31-.16zm4.96 1.11c.26 1.28 0 2.32-1.4 2.62S36.29 11.7 36 10.4s0-2.29 1.42-2.58 2.07.55 2.33 1.82zm-1 .2c-.17-.8-.47-1.31-1.16-1.17s-.77.71-.6 1.53.43 1.37 1.17 1.22.77-.76.61-1.58zm5.76 1.23l-1 .16v-.2a2.59 2.59 0 0 1-1 .46c-1.17.19-1.73-.61-1.95-2s.25-2.31 1.38-2.5a6.21 6.21 0 0 1 .89 0l-.28-1.78 1-.16zm-1.14-.84L43 7.8a4.64 4.64 0 0 0-.82 0c-.54.09-.74.61-.6 1.49s.42 1.34 1 1.25a2.65 2.65 0 0 0 .79-.31zm5.48-.58l.11.73a7.56 7.56 0 0 1-1.61.41c-1.34.16-1.93-.54-2.1-2s.34-2.38 1.54-2.52 1.88.5 2 1.74v.71l-2.56.31c.08.57.37.94 1 .86s1.62-.24 1.62-.24zm-1-1.54c-.09-.72-.36-1.06-1-1s-.79.5-.71 1.19zm4.2 1.14l-2.48.2-.06-.81 1.21-4.05 1.1-.09-1.16 3.91 1.34-.1-.15-1.61 1-.08.15 1.6h.57l.08.94-.58.05.09 1-1 .08zm1.71-5.18l4.05-.17v1l-1.5.07.21 5h-1l-.21-5-1.54.07zm4.71 6.59a1.31 1.31 0 0 1 .64-1.06.76.76 0 0 1-.29-.6 2.37 2.37 0 0 1 .33-.71A1.39 1.39 0 0 1 58.52 7a1.52 1.52 0 0 1 1.71-1.52 4.75 4.75 0 0 1 .82.11h1.33v.79h-.63A1 1 0 0 1 62 7c0 1.1-.66 1.5-1.74 1.5a2 2 0 0 1-.34 0 1.91 1.91 0 0 0-.1.39c0 .26.06.32.86.32 1.26 0 1.78.3 1.78 1.28S61.5 12 60.44 12s-1.97-.36-1.97-1.34zm1.29-.7a.76.76 0 0 0-.31.6c0 .37.4.54 1 .54s1-.2 1-.59-.29-.5-.87-.5c-.3-.01-.82-.01-.82-.01zM61 7c0-.47-.25-.71-.75-.71a.63.63 0 0 0-.71.71.63.63 0 0 0 .7.71c.44-.01.76-.23.76-.71zm2.68-3.1l1.66.1 1 4.7L68 4.15l1.64.1-.35 6-1-.05.28-4.8h-.17l-1.57 4.45-1-.06-1.1-4.63h-.12L64.33 10l-1-.06zm10.86 2.62l-.54 4.3-1-.12v-.22a3 3 0 0 1-1.12.18c-1.1-.13-1.38-.83-1.19-2.32L71 6.09l1 .12-.27 2.24c-.11.9 0 1.31.51 1.37a2.87 2.87 0 0 0 .92-.11l.4-3.31zm1.46.22l1 .16-.08.45A3.47 3.47 0 0 1 78.19 7L78 8a4.75 4.75 0 0 0-1.31.21l-.48 2.92-1-.16zm5.6 4.6l-.13.72a7.56 7.56 0 0 1-1.66-.13c-1.31-.27-1.65-1.13-1.36-2.53s1.09-2.14 2.27-1.9a1.69 1.69 0 0 1 1.36 2.3l-.21.68-2.52-.48c-.1.57.05 1 .71 1.15s1.54.19 1.54.19zm-.46-1.79c.14-.7 0-1.11-.59-1.23s-.9.22-1 .89zm5.15.31s-1-.4-1.44-.51-.69 0-.77.29.08.37.72.66c1 .46 1.31.83 1.1 1.66s-1 1.17-2 .92a10.26 10.26 0 0 1-1.51-.59l.24-.77s1 .39 1.39.5.8.05.89-.28 0-.37-.65-.66c-.89-.43-1.4-.8-1.18-1.66A1.4 1.4 0 0 1 85 8.49a10.67 10.67 0 0 1 1.5.59z" fill="#87633f"/></svg>