<svg viewBox="0 0 118.38 108" xmlns="http://www.w3.org/2000/svg"><path d="m91.6 4.94-32.41-4.77-32.41 4.77-26.78 49.44 24.86 50.68 34.33 2.77 34.34-2.77 24.85-50.68z" fill="#f7c31a"/><path d="m59.19 12.45 24.62 3.63 20.9 38.57-19 38.85-26.52 2.14-26.47-2.14-19-38.85 20.9-38.57 24.62-3.63m0-12.28-32.46 4.77-26.78 49.44 24.86 50.68 34.33 2.77 34.34-2.77 24.85-50.68-26.78-49.44-32.41-4.77z" fill="#faef54"/><g fill="none" stroke="#fff" stroke-linecap="round" stroke-linejoin="round"><path d="m46.08 62.65a18.16 18.16 0 1 1 26.24-.1m-27.08-.8a39 39 0 0 1 3.54 4.42 12.91 12.91 0 0 1 2.22 7.25v8.71a2.88 2.88 0 0 0 2.86 2.87l10.49.07a3 3 0 0 0 3-3v-8.65a13 13 0 0 1 2.2-7.25 39 39 0 0 1 3.45-4.42m-5.7 11.67h-16.32m8.18-48.42v-8.84m24.25 33.9h13.67m-76.02 0h13.91m1.41-22.81 5.68 5.68m34.26 0 5.68-5.68" stroke-width="1.39"/><path d="m63.65 47.4a.37.37 0 0 1 .07.44l-5.58 11.95a.45.45 0 0 1 -.43.26h-.15a.57.57 0 0 1 -.26-.2.36.36 0 0 1 0-.3l2-8.34-4.18 1h-.13a.42.42 0 0 1 -.31-.13.35.35 0 0 1 -.13-.38l2.05-8.5a.41.41 0 0 1 .17-.24.47.47 0 0 1 .28-.09h3.38a.42.42 0 0 1 .33.13.4.4 0 0 1 .13.31.81.81 0 0 1 0 .19l-1.78 4.77 4.09-1a.3.3 0 0 1 .13 0 .47.47 0 0 1 .32.13z" stroke-width=".97"/><path d="m30.97 60.62-4.05 4.05m3.92-.12-3.8-3.8m56.5 15.31-4.05 4.05m3.92-.12-3.8-3.81m-6.8-55.88-4.05 4.05m3.93-.13-3.8-3.8" stroke-width=".9"/></g><path d="m33.38 9.2.18.81s-.62.09-.94.18c-.74.19-.91.62-.68 1.5s.59 1.29 1.36 1.09c.32-.08.91-.3.91-.3l.23.8a7.91 7.91 0 0 1 -1.2.43c-1.19.31-1.87-.28-2.26-1.77s0-2.25 1.16-2.56a7 7 0 0 1 1.24-.18zm4.92 1.02c.28 1.26.08 2.28-1.34 2.6s-2-.51-2.33-1.79-.06-2.25 1.37-2.57 2 .54 2.3 1.76zm-1 .21c-.18-.79-.48-1.28-1.16-1.13s-.75.71-.57 1.52.45 1.33 1.17 1.17.77-.76.59-1.56zm5.7 1.1-1 .18v-.19a2.52 2.52 0 0 1 -1 .46c-1.15.21-1.72-.56-2-1.94s.22-2.28 1.33-2.48a5.55 5.55 0 0 1 .88 0l-.21-1.8 1-.17zm-1.15-.8-.43-2.39a4.9 4.9 0 0 0 -.81.05c-.53.1-.72.62-.57 1.49s.44 1.31 1 1.21a2.61 2.61 0 0 0 .83-.36zm5.42-.66.12.71a7.26 7.26 0 0 1 -1.58.43c-1.32.19-1.91-.5-2.11-1.9s.3-2.31 1.48-2.52 1.86.47 2 1.69v.69l-2.52.36c.09.55.38.92 1 .83s1.61-.29 1.61-.29zm-1-1.51c-.09-.7-.37-1-1-1s-.77.5-.68 1.18zm4.15 1.05-2.42.24-.08-.8 1.08-4.05 1.09-.11-1.09 3.92 1.3-.13-.16-1.59 1-.1.15 1.59.58-.06.09.93-.57.05.1 1-1 .1zm1.58-5.14 4-.25.05 1-1.48.09.3 5-1 .06-.3-4.95-1.52.09zm4.83-.26h1v1h-1zm.05 1.66h1l.12 4.23h-1zm2.34 4.13.07-4.27h1v.27a3.15 3.15 0 0 1 1-.32 1.5 1.5 0 0 1 1.05.4 6.18 6.18 0 0 1 1.49-.36c1.09 0 1.44.75 1.42 2.17v2.23h-1v-2.19c0-.79 0-1.29-.64-1.3a2.5 2.5 0 0 0 -.92.23 8.76 8.76 0 0 1 0 1v2.22h-1v-2.2c0-.82-.12-1.28-.69-1.29a2.37 2.37 0 0 0 -.84.21v3.26zm7.42-4 1 .06-.26 4.26-1-.06zm.1-1.66 1 .06-.07 1-1-.06zm5.09 2.96s-1-.24-1.48-.28-.68.08-.71.4.14.35.8.53c1 .3 1.41.61 1.33 1.45-.1 1-.81 1.3-1.78 1.21a10.45 10.45 0 0 1 -1.56-.35l.11-.79s1 .23 1.43.28.79-.07.83-.41-.1-.36-.73-.55c-.94-.29-1.49-.56-1.4-1.44a1.37 1.37 0 0 1 1.69-1.19 9.82 9.82 0 0 1 1.56.35zm4.63 1.85c-.18 1.28-.73 2.17-2.17 2s-1.73-1.2-1.54-2.49.74-2.14 2.17-1.93 1.72 1.16 1.54 2.42zm-1-.13c.12-.81 0-1.38-.68-1.48s-1 .4-1.07 1.23 0 1.41.68 1.51.98-.45 1.09-1.28zm4.95 1.89c0 .3.07.39.3.5l-.21.8a1.75 1.75 0 0 1 -1.08-.52 3.19 3.19 0 0 1 -1.28.06 1.28 1.28 0 0 1 -1-1.59c.17-.87.78-1.12 1.62-1l1 .1.03-.26c.06-.35-.07-.56-.39-.62-.76-.15-1.65-.23-1.65-.23l.12-.8a14.34 14.34 0 0 1 1.75.15 1.25 1.25 0 0 1 1.12 1.69zm-1.7-1.06a.53.53 0 0 0 -.63.47c-.06.33.07.6.35.65a3.26 3.26 0 0 0 1 0l.2-1zm3.71-1.68 1 .23-.11.44a3.41 3.41 0 0 1 1.34-.26l-.24 1a4.71 4.71 0 0 0 -1.3.11l-.67 2.85-1-.23zm5.33 4.6a.41.41 0 0 0 .26.53l-.28.78a1.81 1.81 0 0 1 -1-.6 3.28 3.28 0 0 1 -1.28-.05 1.3 1.3 0 0 1 -.89-1.68c.24-.85.87-1 1.7-.87l1 .19.08-.26c.09-.35 0-.57-.34-.66-.74-.21-1.62-.37-1.62-.37l.14-.78a15.08 15.08 0 0 1 1.73.3 1.24 1.24 0 0 1 1 1.78zm-1.61-1.19a.51.51 0 0 0 -.66.41c-.1.33 0 .6.28.68a3.78 3.78 0 0 0 1 .1l.28-1z" fill="#f6a81d"/></svg>