<svg xmlns="http://www.w3.org/2000/svg" viewBox="0 0 157.9 58.04"><defs><style>.cls-1{fill:#293c42;}.cls-2{fill:#0097ba;}.cls-3{fill:#0066b3;}</style></defs><g id="Ebene_1" data-name="Ebene 1"><rect class="cls-1" x="86.66" y="12.75" width="0.64" height="45.29"/><path class="cls-1" d="M125.63,38.81a2.53,2.53,0,0,1-.94,2.11,4.2,4.2,0,0,1-2.65.73h-1.47v3.92h-.66V36.08h2.33Q125.63,36.08,125.63,38.81Zm-5.06,2.27h1.31a4,4,0,0,0,2.32-.53,2,2,0,0,0,.71-1.72,1.92,1.92,0,0,0-.67-1.62,3.35,3.35,0,0,0-2.1-.53h-1.57Z" transform="translate(-22.65 -22.65)"/><path class="cls-1" d="M131.81,45.57l-.16-1.11h-.05a3.39,3.39,0,0,1-1.09,1,2.93,2.93,0,0,1-1.33.28,2.29,2.29,0,0,1-1.62-.53A1.9,1.9,0,0,1,127,43.7a1.83,1.83,0,0,1,.86-1.61,4.71,4.71,0,0,1,2.49-.6l1.35,0V41a2.44,2.44,0,0,0-.41-1.52A1.59,1.59,0,0,0,130,39a4.34,4.34,0,0,0-2,.55l-.24-.56a5.28,5.28,0,0,1,2.3-.55,2.25,2.25,0,0,1,1.73.61,2.61,2.61,0,0,1,.58,1.88v4.69Zm-2.59-.45a2.25,2.25,0,0,0,2.43-2.44V42l-1.23.06a4.59,4.59,0,0,0-2.12.46,1.33,1.33,0,0,0-.63,1.22,1.3,1.3,0,0,0,.4,1A1.62,1.62,0,0,0,129.22,45.12Z" transform="translate(-22.65 -22.65)"/><path class="cls-1" d="M137.35,38.38a5.74,5.74,0,0,1,1,.09l-.13.62a3.44,3.44,0,0,0-.91-.11,1.79,1.79,0,0,0-1.49.76,3.17,3.17,0,0,0-.57,1.94v3.89h-.65v-7h.55l.06,1.27h0a3,3,0,0,1,.93-1.1A2.18,2.18,0,0,1,137.35,38.38Z" transform="translate(-22.65 -22.65)"/><path class="cls-1" d="M141.61,45.13a4.81,4.81,0,0,0,1.07-.1v.52a3.52,3.52,0,0,1-1.08.15,1.74,1.74,0,0,1-1.38-.5,2.28,2.28,0,0,1-.44-1.57V39.07h-1.05V38.7l1.05-.3.32-1.59h.33v1.71h2.07v.55h-2.07v4.47a2,2,0,0,0,.29,1.2A1,1,0,0,0,141.61,45.13Z" transform="translate(-22.65 -22.65)"/><path class="cls-1" d="M153.5,42a4,4,0,0,1-.84,2.69,2.88,2.88,0,0,1-2.31,1,3.07,3.07,0,0,1-1.64-.44A2.87,2.87,0,0,1,147.63,44a4.68,4.68,0,0,1-.38-1.93,4,4,0,0,1,.84-2.7,2.89,2.89,0,0,1,2.3-1,2.8,2.8,0,0,1,2.28,1A4,4,0,0,1,153.5,42Zm-5.57,0a3.55,3.55,0,0,0,.64,2.26,2.4,2.4,0,0,0,3.61,0,3.55,3.55,0,0,0,.64-2.26,3.55,3.55,0,0,0-.64-2.27,2.2,2.2,0,0,0-1.82-.81,2.15,2.15,0,0,0-1.8.81A3.59,3.59,0,0,0,147.93,42Z" transform="translate(-22.65 -22.65)"/><path class="cls-1" d="M158.08,39.07h-1.67v6.5h-.64v-6.5h-1.31V38.7l1.31-.24v-.55a3.1,3.1,0,0,1,.48-1.91,1.88,1.88,0,0,1,1.56-.6,4.3,4.3,0,0,1,1.17.17l-.15.56a3.4,3.4,0,0,0-1-.16,1.24,1.24,0,0,0-1.07.44,2.57,2.57,0,0,0-.32,1.45v.66h1.67Z" transform="translate(-22.65 -22.65)"/><path class="cls-1" d="M164.76,45.13a4.71,4.71,0,0,0,1.06-.1v.52a3.5,3.5,0,0,1-1.07.15,1.71,1.71,0,0,1-1.38-.5,2.28,2.28,0,0,1-.45-1.57V39.07h-1V38.7l1-.3.33-1.59h.33v1.71h2.07v.55h-2.07v4.47a2,2,0,0,0,.28,1.2A1,1,0,0,0,164.76,45.13Z" transform="translate(-22.65 -22.65)"/><path class="cls-1" d="M172.27,45.57V41a2.23,2.23,0,0,0-.45-1.55,1.77,1.77,0,0,0-1.39-.49,2.42,2.42,0,0,0-1.85.64,3,3,0,0,0-.59,2.08v3.89h-.64V35.47H168v3.21l0,.91h0a2.35,2.35,0,0,1,1-.93,3.49,3.49,0,0,1,1.5-.28q2.4,0,2.4,2.58v4.61Z" transform="translate(-22.65 -22.65)"/><path class="cls-1" d="M178.05,45.7a3.07,3.07,0,0,1-2.4-.94,3.8,3.8,0,0,1-.86-2.66,4.07,4.07,0,0,1,.83-2.7,2.73,2.73,0,0,1,2.24-1,2.42,2.42,0,0,1,2,.87,3.6,3.6,0,0,1,.72,2.36v.52h-5.09a3.36,3.36,0,0,0,.68,2.22,2.39,2.39,0,0,0,1.91.77,6.64,6.64,0,0,0,1.06-.08,6.75,6.75,0,0,0,1.16-.37v.59a5.2,5.2,0,0,1-1.11.35A6.32,6.32,0,0,1,178.05,45.7ZM177.86,39a2.11,2.11,0,0,0-1.64.67,3.2,3.2,0,0,0-.72,1.94h4.37a3,3,0,0,0-.54-1.92A1.74,1.74,0,0,0,177.86,39Z" transform="translate(-22.65 -22.65)"/><path class="cls-1" d="M120.57,57.4v4.13h-.66V52h2.26a4.28,4.28,0,0,1,2.61.65,2.35,2.35,0,0,1,.85,2,2.56,2.56,0,0,1-.51,1.61,2.74,2.74,0,0,1-1.53.94l2.58,4.32h-.79l-2.45-4.13Zm0-.57h1.81a2.87,2.87,0,0,0,1.87-.54,1.91,1.91,0,0,0,.66-1.58,1.87,1.87,0,0,0-.65-1.58,3.54,3.54,0,0,0-2.12-.49h-1.57Z" transform="translate(-22.65 -22.65)"/><path class="cls-1" d="M131.94,61.53l-.16-1.11h-.06a3.39,3.39,0,0,1-1.09,1,2.93,2.93,0,0,1-1.33.28,2.29,2.29,0,0,1-1.62-.53,1.9,1.9,0,0,1-.57-1.47,1.81,1.81,0,0,1,.86-1.61,4.66,4.66,0,0,1,2.49-.6l1.34,0v-.47a2.37,2.37,0,0,0-.41-1.52,1.59,1.59,0,0,0-1.32-.51,4.34,4.34,0,0,0-2,.55l-.24-.56a5.31,5.31,0,0,1,2.3-.55,2.28,2.28,0,0,1,1.74.61,2.66,2.66,0,0,1,.57,1.88v4.69Zm-2.6-.45a2.42,2.42,0,0,0,1.78-.65,2.39,2.39,0,0,0,.66-1.79v-.7l-1.24.06a4.59,4.59,0,0,0-2.12.46,1.33,1.33,0,0,0-.63,1.22,1.3,1.3,0,0,0,.4,1A1.64,1.64,0,0,0,129.34,61.08Z" transform="translate(-22.65 -22.65)"/><path class="cls-1" d="M136.56,61.09a4.87,4.87,0,0,0,1.07-.1v.52a3.57,3.57,0,0,1-1.08.15,1.71,1.71,0,0,1-1.38-.5,2.28,2.28,0,0,1-.45-1.57V55h-1v-.37l1-.3.33-1.59h.33v1.7h2.07V55h-2.07V59.5a2,2,0,0,0,.29,1.2A1,1,0,0,0,136.56,61.09Z" transform="translate(-22.65 -22.65)"/><path class="cls-1" d="M139.06,52.51c0-.41.14-.62.41-.62a.36.36,0,0,1,.32.16,1,1,0,0,1,0,.92.35.35,0,0,1-.32.17C139.2,53.14,139.06,52.93,139.06,52.51Zm.74,9h-.65V54.47h.65Z" transform="translate(-22.65 -22.65)"/><path class="cls-1" d="M148,58a4,4,0,0,1-.84,2.69,2.88,2.88,0,0,1-2.31,1,3.07,3.07,0,0,1-1.64-.44,2.87,2.87,0,0,1-1.08-1.29,4.68,4.68,0,0,1-.38-1.93,4,4,0,0,1,.84-2.7,2.89,2.89,0,0,1,2.3-1,2.8,2.8,0,0,1,2.28,1A4,4,0,0,1,148,58Zm-5.57,0a3.55,3.55,0,0,0,.64,2.26,2.4,2.4,0,0,0,3.61,0,4.33,4.33,0,0,0,0-4.53,2.2,2.2,0,0,0-1.82-.81,2.15,2.15,0,0,0-1.8.81A3.59,3.59,0,0,0,142.43,58Z" transform="translate(-22.65 -22.65)"/><path class="cls-1" d="M152.54,54.34a2.86,2.86,0,0,1,1.32.28,2.56,2.56,0,0,1,1,1h0c0-.54,0-1.08,0-1.6V51.43h.64v10.1h-.42l-.17-1.07h0a2.61,2.61,0,0,1-2.31,1.2,2.75,2.75,0,0,1-2.23-.91,3.93,3.93,0,0,1-.78-2.64,4.41,4.41,0,0,1,.77-2.8A2.66,2.66,0,0,1,152.54,54.34Zm0,.58a2,2,0,0,0-1.74.82,4,4,0,0,0-.58,2.35c0,2,.78,3,2.33,3a2.11,2.11,0,0,0,1.75-.69,3.65,3.65,0,0,0,.56-2.29V58a3.9,3.9,0,0,0-.55-2.36A2.07,2.07,0,0,0,152.54,54.92Z" transform="translate(-22.65 -22.65)"/><path class="cls-1" d="M162.15,61.53,162,60.42h-.05a3.39,3.39,0,0,1-1.09,1,2.93,2.93,0,0,1-1.33.28,2.29,2.29,0,0,1-1.62-.53,1.9,1.9,0,0,1-.58-1.47,1.83,1.83,0,0,1,.86-1.61,4.71,4.71,0,0,1,2.49-.6l1.35,0v-.47a2.44,2.44,0,0,0-.41-1.52,1.59,1.59,0,0,0-1.32-.51,4.34,4.34,0,0,0-2,.55L158,54.9a5.28,5.28,0,0,1,2.3-.55,2.25,2.25,0,0,1,1.73.61,2.61,2.61,0,0,1,.58,1.88v4.69Zm-2.59-.45A2.25,2.25,0,0,0,162,58.64v-.7l-1.23.06a4.59,4.59,0,0,0-2.12.46,1.34,1.34,0,0,0-.64,1.22,1.3,1.3,0,0,0,.41,1A1.62,1.62,0,0,0,159.56,61.08Z" transform="translate(-22.65 -22.65)"/><path class="cls-1" d="M166.78,61.09a4.71,4.71,0,0,0,1.06-.1v.52a3.5,3.5,0,0,1-1.07.15,1.71,1.71,0,0,1-1.38-.5,2.28,2.28,0,0,1-.45-1.57V55h-1v-.37l1-.3.33-1.59h.33v1.7h2.07V55H165.6V59.5a2,2,0,0,0,.28,1.2A1,1,0,0,0,166.78,61.09Z" transform="translate(-22.65 -22.65)"/><path class="cls-1" d="M173.66,61.53l-.17-1.11h-.05a3.39,3.39,0,0,1-1.09,1,2.93,2.93,0,0,1-1.33.28,2.29,2.29,0,0,1-1.62-.53,1.9,1.9,0,0,1-.57-1.47,1.81,1.81,0,0,1,.86-1.61,4.66,4.66,0,0,1,2.49-.6l1.34,0v-.47a2.44,2.44,0,0,0-.41-1.52,1.59,1.59,0,0,0-1.32-.51,4.34,4.34,0,0,0-2,.55l-.24-.56a5.28,5.28,0,0,1,2.3-.55,2.29,2.29,0,0,1,1.74.61,2.66,2.66,0,0,1,.57,1.88v4.69Zm-2.6-.45a2.42,2.42,0,0,0,1.78-.65,2.39,2.39,0,0,0,.65-1.79v-.7l-1.23.06a4.59,4.59,0,0,0-2.12.46,1.33,1.33,0,0,0-.63,1.22,1.3,1.3,0,0,0,.4,1A1.64,1.64,0,0,0,171.06,61.08Z" transform="translate(-22.65 -22.65)"/><path class="cls-1" d="M123.64,72.71h3.51V77a7.89,7.89,0,0,1-3.1.58,4.51,4.51,0,0,1-3.45-1.27,5,5,0,0,1-1.2-3.59,5.39,5.39,0,0,1,.6-2.57,4.11,4.11,0,0,1,1.7-1.73,5.16,5.16,0,0,1,2.54-.61,6.56,6.56,0,0,1,2.79.57l-.27.6a6,6,0,0,0-2.56-.57,3.86,3.86,0,0,0-3,1.16,4.31,4.31,0,0,0-1.1,3.12,4.47,4.47,0,0,0,1,3.23A4.09,4.09,0,0,0,124.24,77a5.88,5.88,0,0,0,2.23-.37V73.33h-2.83Z" transform="translate(-22.65 -22.65)"/><path class="cls-1" d="M132.15,70.3a5.72,5.72,0,0,1,1,.09L133,71a3.44,3.44,0,0,0-.91-.11,1.77,1.77,0,0,0-1.48.76A3.11,3.11,0,0,0,130,73.6v3.89h-.64V70.43h.54l.07,1.28h0a3,3,0,0,1,.93-1.1A2.19,2.19,0,0,1,132.15,70.3Z" transform="translate(-22.65 -22.65)"/><path class="cls-1" d="M140.38,74a4,4,0,0,1-.84,2.69,2.88,2.88,0,0,1-2.31,1,3.1,3.1,0,0,1-1.64-.44,2.87,2.87,0,0,1-1.08-1.29,4.68,4.68,0,0,1-.38-1.93,4,4,0,0,1,.84-2.7,2.9,2.9,0,0,1,2.3-1,2.8,2.8,0,0,1,2.28,1A4,4,0,0,1,140.38,74Zm-5.57,0a3.55,3.55,0,0,0,.64,2.26,2.41,2.41,0,0,0,3.62,0,3.62,3.62,0,0,0,.64-2.26,3.55,3.55,0,0,0-.65-2.27,2.2,2.2,0,0,0-1.82-.81,2.15,2.15,0,0,0-1.8.81A3.59,3.59,0,0,0,134.81,74Z" transform="translate(-22.65 -22.65)"/><path class="cls-1" d="M142.89,70.43V75a2.24,2.24,0,0,0,.45,1.55,1.82,1.82,0,0,0,1.39.48,2.43,2.43,0,0,0,1.86-.64,3,3,0,0,0,.59-2.07v-3.9h.64v7.06h-.55l-.12-1h0a2.65,2.65,0,0,1-2.45,1.1c-1.61,0-2.41-.86-2.41-2.57V70.43Z" transform="translate(-22.65 -22.65)"/><path class="cls-1" d="M153.2,77.62a2.57,2.57,0,0,1-2.38-1.22h0l0,.55c0,.32,0,.67,0,1v2.69h-.64V70.43h.55l.12,1h0a2.54,2.54,0,0,1,2.32-1.14,2.61,2.61,0,0,1,2.18.94,4.27,4.27,0,0,1,.75,2.73,4.12,4.12,0,0,1-.79,2.7A2.64,2.64,0,0,1,153.2,77.62Zm0-.57a2,2,0,0,0,1.68-.8,3.8,3.8,0,0,0,.59-2.26c0-2.07-.75-3.11-2.25-3.11a2.27,2.27,0,0,0-1.81.68,3.42,3.42,0,0,0-.58,2.21V74a3.88,3.88,0,0,0,.56,2.36A2.13,2.13,0,0,0,153.19,77.05Z" transform="translate(-22.65 -22.65)"/><g id="Layer_2" data-name="Layer 2"><g id="Layer_1-2" data-name="Layer 1-2"><g id="logo_accesa_black" data-name="logo accesa black"><path class="cls-2" d="M61.7,30.92,47.37,22.65V39.19L61.7,30.92" transform="translate(-22.65 -22.65)"/><path class="cls-1" d="M32,49.71l-.71-1.8H31.2a5.35,5.35,0,0,1-1.89,1.6,6.26,6.26,0,0,1-2.54.44,4.1,4.1,0,0,1-3-1.09,4.22,4.22,0,0,1-1.1-3.12,3.5,3.5,0,0,1,1.48-3.12,8.66,8.66,0,0,1,4.48-1.11l2.32-.07v-.58a1.81,1.81,0,0,0-2.08-2,9.54,9.54,0,0,0-3.76,1l-1.2-2.45A10.91,10.91,0,0,1,29,36.15a6.39,6.39,0,0,1,4.11,1.16,4.29,4.29,0,0,1,1.43,3.55v8.85Zm-1.08-6.14-1.4,0a4.45,4.45,0,0,0-2.35.57,1.8,1.8,0,0,0-.77,1.59c0,1,.58,1.54,1.76,1.54a2.79,2.79,0,0,0,2-.73,2.54,2.54,0,0,0,.75-1.92Zm38,6.39a6.84,6.84,0,0,1-5-1.77,6.71,6.71,0,0,1-1.8-5A7.32,7.32,0,0,1,63.8,38a5.9,5.9,0,0,1,4.6-1.83,5.83,5.83,0,0,1,4.38,1.61,6,6,0,0,1,1.57,4.43V44H65.8a3.42,3.42,0,0,0,.91,2.41,3.21,3.21,0,0,0,2.4.87A9.55,9.55,0,0,0,71.37,47a11.26,11.26,0,0,0,2.24-.79V49a8.74,8.74,0,0,1-2,.71A13.11,13.11,0,0,1,69,50m-.5-11.21a2.3,2.3,0,0,0-1.8.73,3.35,3.35,0,0,0-.75,2.08H71a3,3,0,0,0-.7-2.08,2.39,2.39,0,0,0-1.83-.73m18.13,7a3.88,3.88,0,0,0-.35-1.7,3.51,3.51,0,0,0-1.07-1.26,10.61,10.61,0,0,0-2.28-1.17,13.92,13.92,0,0,1-2.26-1.06,1,1,0,0,1-.52-.84c0-.58.54-.87,1.61-.87a5.65,5.65,0,0,1,1.77.28,19.4,19.4,0,0,1,1.86.7l1.09-2.62a11,11,0,0,0-4.66-1,6.69,6.69,0,0,0-3.9,1A3.14,3.14,0,0,0,76.5,39.9a4.09,4.09,0,0,0,.33,1.74,3.32,3.32,0,0,0,1,1.26,10.68,10.68,0,0,0,2.25,1.18c.72.3,1.29.57,1.71.79a4,4,0,0,1,.91.61,1,1,0,0,1,.26.69c0,.76-.66,1.15-2,1.14A9,9,0,0,1,78.8,47a13,13,0,0,1-2.27-.79v3a9.79,9.79,0,0,0,1.91.58,13.48,13.48,0,0,0,2.47.19,7,7,0,0,0,4.25-1.07,3.64,3.64,0,0,0,1.42-3.11m11.15,3.93L97,47.91h-.09A5.35,5.35,0,0,1,95,49.51a6.24,6.24,0,0,1-2.53.44,4.12,4.12,0,0,1-3-1.09,4.22,4.22,0,0,1-1.1-3.12,3.51,3.51,0,0,1,1.49-3.12,8.61,8.61,0,0,1,4.48-1.11l2.31-.07v-.58a1.81,1.81,0,0,0-2.08-2,9.5,9.5,0,0,0-3.75,1l-1.21-2.45a10.91,10.91,0,0,1,5.11-1.2,6.39,6.39,0,0,1,4.11,1.16,4.29,4.29,0,0,1,1.43,3.55v8.85Zm-1.08-6.14-1.4,0a4.45,4.45,0,0,0-2.35.57,1.8,1.8,0,0,0-.77,1.59c0,1,.58,1.54,1.76,1.54a2.79,2.79,0,0,0,2-.73,2.54,2.54,0,0,0,.75-1.92Zm-53,3.48c-1.9,0-2.84-1.31-2.84-3.92s.94-4,2.84-4a5,5,0,0,1,1.43.21V36.26a11.44,11.44,0,0,0-1.43-.09A6.35,6.35,0,0,0,38.78,38a7.3,7.3,0,0,0-1.69,5.2c0,4.56,2.07,6.83,6.22,6.84a10.21,10.21,0,0,0,2.28-.22A5.89,5.89,0,0,0,47.37,49V45.89a6.93,6.93,0,0,1-1.79.88,6.69,6.69,0,0,1-1.94.28m12.51,0q-2.82,0-2.82-3.9t2.82-4a5,5,0,0,1,1.48.22c.48.14,1.64.59,2.2.82V36.9a8.7,8.7,0,0,0-2.61-.65L50,40.42a9.94,9.94,0,0,0-.36,2.74q0,6.8,6.2,6.8a10.25,10.25,0,0,0,2.27-.21A5.27,5.27,0,0,0,59.83,49v-3.1a6.31,6.31,0,0,1-1.74.87,6.69,6.69,0,0,1-1.94.28" transform="translate(-22.65 -22.65)"/><path class="cls-1" d="M102.08,32.52a1.8,1.8,0,0,1,1.75,2.29,1.74,1.74,0,0,1-1.38,1.3,1.83,1.83,0,0,1-2.23-1.79,1.8,1.8,0,0,1,1.85-1.8Zm0,.31a1.5,1.5,0,0,0,0,3,1.44,1.44,0,0,0,1.42-1.49,1.45,1.45,0,0,0-1.43-1.5Zm-.36,2.49h-.31V33.43a3.47,3.47,0,0,1,.64-.06.84.84,0,0,1,.58.15.48.48,0,0,1-.16.85h0c.16.07.25.22.31.48a1.64,1.64,0,0,0,.15.47h-.37a1.5,1.5,0,0,1-.16-.49c0-.22-.18-.32-.45-.32h-.23Zm.06-1.12H102c.25,0,.49-.08.49-.29s-.13-.32-.46-.32a1.23,1.23,0,0,0-.27,0Z" transform="translate(-22.65 -22.65)"/></g></g></g><path class="cls-3" d="M34.64,77.44H33.09c-.29,0-.44,0-.63-.32l-4.34-7.27h-.63c-.8,0-1.38,0-2.66-.08V77a.47.47,0,0,1-.44.49H23.08a.46.46,0,0,1-.43-.49V59.87c0-.34.14-.49.58-.54,1-.12,2.86-.19,4.26-.19,3.83,0,6.79,1.29,6.79,5.24v.17a4.79,4.79,0,0,1-3.81,4.93l4.41,7.42a.38.38,0,0,1,.07.22A.31.31,0,0,1,34.64,77.44ZM32.1,64.38c0-2.44-1.58-3.24-4.61-3.24-.75,0-2.08,0-2.66.07V67.9l2.66,0c3,0,4.61-.75,4.61-3.39Z" transform="translate(-22.65 -22.65)"/><path class="cls-3" d="M73.07,72.65c-.25,1.9-1.27,3-3.2,3-2.27,0-3.24-1.58-3.24-4.06V69.79c0-2.51,1-4.07,3.27-4.07V63.85c-3.56,0-5.4,2.36-5.4,5.94v1.85c0,3.57,1.81,5.93,5.37,5.93s5.4-2.36,5.4-5.93v-.27Z" transform="translate(-22.65 -22.65)"/><path class="cls-3" d="M46.52,77.45H45.39A.49.49,0,0,1,44.9,77v-.54a7.43,7.43,0,0,1-3.78,1.2c-2.09,0-4-.9-4-4v-.3c0-2.65,1.55-4,5.92-4h1.81v-1c0-2.06-.71-2.77-2.62-2.77-1.6,0-2.78.1-3.76.19h-.12c-.23,0-.45-.07-.45-.39v-.86c0-.27.18-.42.52-.47a21.54,21.54,0,0,1,3.81-.31c3.41,0,4.78,1.71,4.78,4.61V77A.49.49,0,0,1,46.52,77.45Zm-1.67-6.53H43c-3,0-3.76.66-3.76,2.41v.29c0,1.77.83,2.24,2.26,2.24a6.74,6.74,0,0,0,3.31-1Z" transform="translate(-22.65 -22.65)"/><path class="cls-3" d="M62.66,77.45H61.08c-.29,0-.44,0-.63-.32l-4.4-7.31h-.64c-.81,0-1.4,0-2.7-.08V77a.46.46,0,0,1-.44.49H50.94A.47.47,0,0,1,50.5,77V59.77c0-.34.15-.49.59-.54,1.06-.12,2.9-.19,4.32-.19,3.88,0,6.88,1.3,6.88,5.28v.17a4.83,4.83,0,0,1-3.86,5l4.47,7.46a.42.42,0,0,1,.08.22A.31.31,0,0,1,62.66,77.45ZM60.08,64.32c0-2.46-1.6-3.27-4.67-3.27-.76,0-2.11,0-2.7.07v6.73c1.08,0,2.14.05,2.7.05,3,0,4.67-.76,4.67-3.41Z" transform="translate(-22.65 -22.65)"/><path class="cls-2" d="M86.08,63,71.75,54.71V71.26L86.08,63" transform="translate(-22.65 -22.65)"/></g></svg>